<?xml version="1.0" encoding="UTF-8"?>
<svg width="24px" height="24px" viewBox="0 0 24 24" version="1.1" xmlns="http://www.w3.org/2000/svg" xmlns:xlink="http://www.w3.org/1999/xlink">
    <!-- Generator: Sketch 44 (41411) - http://www.bohemiancoding.com/sketch -->
    <title>Account</title>
    <desc>Created with Sketch.</desc>
    <defs></defs>
    <g id="Symbols" stroke="none" stroke-width="1" fill="none" fill-rule="evenodd">
        <g id="Icons/Account-White" transform="translate(-10.000000, -10.000000)" fill="#FFFFFF">
            <g id="Account" transform="translate(10.000000, 10.000000)">
                <path d="M12,-1.42108547e-14 C5.37225,-1.42108547e-14 0,5.37208212 0,11.999625 C0,15.2357739 1.287,18.1674323 3.3705,20.3258648 L3.3855,20.3596138 C3.387,20.3558639 3.3885,20.351364 3.39,20.3476141 C5.571,22.5967939 8.61975,24 12,24 C18.62775,24 24,18.6279179 24,12.000375 C24,5.3728321 18.62775,-1.42108547e-14 12,-1.42108547e-14 L12,-1.42108547e-14 Z M12,0.749976563 C18.20325,0.749976563 23.25,5.79656886 23.25,11.999625 C23.25,14.624543 22.3395,17.0357176 20.8275,18.9519078 C20.4975,18.0496859 19.7895,16.4394863 19.4805,16.2602419 C18.243,15.5440142 16.89225,15.0055311 15.465,14.6642917 C14.63925,15.327271 13.39425,15.7495078 12.00075,15.7495078 C10.60725,15.7495078 9.36225,15.327271 8.5365,14.6642917 C7.10925,15.0055311 5.7585,15.5440142 4.521,16.2602419 C4.212,16.4394863 3.50325,18.0496859 3.174,18.9519078 C1.6605,17.0357176 0.75,14.624543 0.75,11.999625 C0.75,5.79656886 5.79675,0.749976563 12,0.749976563 L12,0.749976563 Z M12,23.2492735 C8.7105,23.2492735 5.7555,21.8213181 3.69675,19.5631387 C4.10925,18.5686697 4.75875,17.1287147 4.96125,16.8714728 C6.02475,16.2632418 7.17225,15.7952564 8.37675,15.4772663 C9.34425,16.1304959 10.641,16.4994844 12,16.4994844 C13.359,16.4994844 14.65575,16.1304959 15.62325,15.4772663 C16.82775,15.7952564 17.9745,16.2632418 19.03875,16.8714728 C19.2765,17.1737133 19.9545,18.7546639 20.27475,19.5953876 C18.21675,21.8348177 15.27375,23.2492735 12,23.2492735 L12,23.2492735 Z" id="Shape"></path>
                <path d="M12.0388685,13.1818182 C14.2483231,13.1818182 15.6868685,10.8807273 16.0388685,8.09090909 C16.4025049,5.21236364 14.5697776,3 12.0388685,3 C9.55377762,3 7.70577762,5.21236364 8.03886853,8.09090909 C8.36250489,10.8836364 9.82941398,13.1818182 12.0388685,13.1818182 L12.0388685,13.1818182 Z M9.66286853,4.78618182 C10.2715958,4.10327273 11.1152322,3.72727273 12.0388685,3.72727273 C12.9872322,3.72727273 13.845414,4.10763636 14.453414,4.79709091 C15.1690503,5.60872727 15.4759594,6.74618182 15.317414,7.99927273 C15.037414,10.2167273 13.9152322,12.4538182 12.0388685,12.4538182 C10.1305049,12.4538182 9.01777762,10.2203636 8.76105035,8.00654545 C8.6155958,6.74690909 8.9355958,5.60290909 9.66286853,4.78618182 L9.66286853,4.78618182 Z" id="Shape"></path>
            </g>
        </g>
    </g>
</svg>