<?xml version="1.0" encoding="UTF-8"?>
<svg width="24px" height="24px" viewBox="0 0 24 24" version="1.1" xmlns="http://www.w3.org/2000/svg" xmlns:xlink="http://www.w3.org/1999/xlink">
    <!-- Generator: Sketch 44 (41411) - http://www.bohemiancoding.com/sketch -->
    <title>Bag</title>
    <desc>Created with Sketch.</desc>
    <defs></defs>
    <g id="Symbols" stroke="none" stroke-width="1" fill="none" fill-rule="evenodd">
        <g id="Icons/Bag-White" transform="translate(-10.000000, -10.000000)" fill="#FFFFFF">
            <path d="M29.5,15 L34,15 L34,34 L10,34 L10,15 L14.5,15 L14.5,15.7307692 L10.75,15.7307692 L10.75,33.2692308 L33.25,33.2692308 L33.25,15.7307692 L29.5,15.7307692 L29.5,15 Z M18,15 L25.5,15 L25.5,15.75 L18,15.75 L18,15 Z M16.75,16 L16.75,16.75 L16,16.75 L16,16 C16,12.6865 18.6865,10 22,10 C25.3135,10 28,12.6865 28,16 L28,16.75 L27.25,16.75 L27.25,16 C27.25,13.105 24.895,10.75 22,10.75 C19.105,10.75 16.75,13.105 16.75,16 Z" id="Bag"></path>
        </g>
    </g>
</svg>