<svg id="Layer_1" data-name="Layer 1" xmlns="http://www.w3.org/2000/svg" viewBox="0 0 47.4 46.8"><defs><style>.cls-1{fill:#fff;}</style></defs><title>user</title><path class="cls-1" d="M24.09,29.24c-6.3,0-11.4-7.3-11.5-16.2h0v-.1c.1-6.8,5.2-12.3,11.5-12.3s11.4,5.5,11.5,12.3h0V13C35.49,21.94,30.29,29.24,24.09,29.24Zm-10-16.3c0,8.2,4.5,14.8,10,14.8s9.9-6.6,10-14.8c0-6-4.5-10.9-10-10.9S14.09,6.94,14.09,12.94Z" transform="translate(-0.29 -0.64)"/><path class="cls-1" d="M46.29,47.34a17.88,17.88,0,0,0-3.2-9.2,8.48,8.48,0,0,0-2.6-2.4,32.81,32.81,0,0,0-7.7-2.9,16.53,16.53,0,0,1-8.6,2.5,17.58,17.58,0,0,1-9-2.4,35,35,0,0,0-7.6,2.9,9.52,9.52,0,0,0-2.5,2.4,16.25,16.25,0,0,0-3.2,9.2l-1.6-.2a18.86,18.86,0,0,1,3.5-10,10.4,10.4,0,0,1,3.1-2.8,40.65,40.65,0,0,1,8.2-3.1l.4-.1.3.3a16.31,16.31,0,0,0,8.4,2.3,13.56,13.56,0,0,0,7.8-2.4l.3-.3.4.1a37.27,37.27,0,0,1,8.4,3.2,11.77,11.77,0,0,1,3.1,2.8,18.06,18.06,0,0,1,3.5,10Z" transform="translate(-0.29 -0.64)"/></svg>