<svg width="24" height="24" xmlns="http://www.w3.org/2000/svg"><g id="Symbols" stroke="none" stroke-width="1" fill="none" fill-rule="evenodd"><g id="Icons/Account-White" transform="translate(-10 -10)" fill="#FFF"><g id="Account" transform="translate(10 10)"><path d="M12 0C5.372 0 0 5.372 0 12a11.95 11.95 0 0 0 3.37 8.326l.015.034.005-.012A11.957 11.957 0 0 0 12 24c6.628 0 12-5.372 12-12 0-6.627-5.372-12-12-12Zm0 .75C18.203.75 23.25 5.797 23.25 12c0 2.625-.91 5.036-2.422 6.952-.33-.902-1.038-2.513-1.348-2.692a14.947 14.947 0 0 0-4.015-1.596c-.826.663-2.07 1.086-3.464 1.086-1.394 0-2.639-.423-3.464-1.086-1.428.342-2.779.88-4.016 1.596-.309.18-1.018 1.79-1.347 2.692A11.178 11.178 0 0 1 .75 12C.75 5.797 5.797.75 12 .75Zm0 22.5c-3.29 0-6.245-1.429-8.303-3.687.412-.994 1.062-2.434 1.264-2.692a14.148 14.148 0 0 1 3.416-1.394C9.344 16.13 10.64 16.5 12 16.5c1.359 0 2.656-.369 3.623-1.022a14.16 14.16 0 0 1 3.416 1.394c.237.303.915 1.884 1.236 2.724-2.058 2.24-5.001 3.654-8.275 3.654Z" id="Shape"/><path d="M12.039 13.182c2.21 0 3.648-2.301 4-5.091.364-2.879-1.47-5.091-4-5.091-2.485 0-4.333 2.212-4 5.09.324 2.794 1.79 5.092 4 5.092ZM9.663 4.786a3.14 3.14 0 0 1 2.376-1.059c.948 0 1.806.38 2.414 1.07.716.812 1.023 1.95.864 3.202-.28 2.218-1.402 4.455-3.278 4.455-1.908 0-3.021-2.234-3.278-4.447-.145-1.26.175-2.404.902-3.22Z" id="Shape"/></g></g></g></svg>