<svg xmlns="http://www.w3.org/2000/svg"><defs><font id="azo_sansregular" horiz-adv-x="1212"><font-face units-per-em="2048" ascent="1620" descent="-428"/><glyph unicode="ﬁ" d="M53 842v166h160v192q0 107 19.5 180.5T303 1503q87 84 236 84 81 0 151-20v-166q-70 18-143 18-46 0-77-14.5t-46-42.5-21-59.5-6-75.5v-219h258V842H397V0H213v842H53zm776 512q0 54 37.5 91.5T958 1483t91.5-37.5 37.5-91.5-37.5-91.5T958 1225t-91.5 37.5T829 1354zM866 0v1008h185V0H866z"/><glyph unicode="ﬂ" d="M53 842v166h160v192q0 107 19.5 180.5T303 1503q87 84 236 84 81 0 151-20v-166q-70 18-143 18-46 0-77-14.5t-46-42.5-21-59.5-6-75.5v-219h258V842H397V0H213v842H53zM866 0v1565h185V0H866z"/><glyph horiz-adv-x="2048"/><glyph horiz-adv-x="2048"/><glyph horiz-adv-x="682"/><glyph horiz-adv-x="714"/><glyph horiz-adv-x="495"/><glyph horiz-adv-x="495"/><glyph horiz-adv-x="495"/><glyph unicode="!" horiz-adv-x="626" d="M186 106q0 54 37.5 92t91.5 38 91.5-38 37.5-92-37.5-91.5T315-23t-91.5 37.5T186 106zm23 1377h213L373 455H258z"/><glyph unicode="&quot;" horiz-adv-x="720" d="M104 1520h175l-31-551H135zm338 0h174l-30-551H473z"/><glyph unicode="#" horiz-adv-x="1265" d="m29 457 34 125h254l93 319H156l34 125h254l131 457h132l-132-457h277l131 457h131l-131-457h254l-35-125H948l-92-319h254l-35-125H821L690 0H559l131 457H414L283 0H152l131 457H29zm420 125h276l92 319H541z"/><glyph unicode="$" horiz-adv-x="1175" d="M133 1022q0 153 98 246t265 112v258h151v-256q186-13 326-94v-194q-90 58-197 88t-203 30q-115 0-183-44t-68-132q0-25 5-45.5t17-36.5 24-29 34.5-23.5 39-18T488 868t48.5-12.5T591 843l54-12q70-16 119.5-32t104-45 88-65 55.5-92.5 22-127.5q0-164-107-259.5T647 98v-254H496V98q-193 16-332 95v202q90-64 202-96.5T580 266q123 0 194.5 48T846 457q0 26-5 47t-17.5 38-24.5 30-35.5 24.5-40 19-48.5 16-51 13-57 13-57 12.5q-68 16-117.5 32.5t-101 44.5-84.5 64-53.5 89.5T133 1022z"/><glyph unicode="%" horiz-adv-x="1908" d="M111 1122q0 164 100.5 273.5T467 1505t255.5-109.5T823 1122 722.5 848.5 467 739 211.5 848.5 111 1122zm133 0q0-108 63.5-182T467 866t159.5 74 63.5 182-63.5 182-159.5 74-159.5-74-63.5-182zM401 0l965 1483h141L543 0H401zm684 360q0 164 100.5 273.5T1442 743q155 0 255.5-109.5T1798 360 1697.5 86.5 1442-23q-156 0-256.5 109.5T1085 360zm134 0q0-108 63.5-182t159.5-74 159.5 74 63.5 182-63.5 182-159.5 74-159.5-74-63.5-182z"/><glyph unicode="&amp;" horiz-adv-x="1437" d="M119 395q0 231 256 381l49 29-45 47q-74 75-112 147.5T229 1159q0 153 108.5 249.5T608 1505q166 0 271.5-99.5T985 1159q0-196-203-328l-84-55 291-293 127 406h191l-177-547L1466 4l-2-4h-233l-176 176Q991 85 880 31T614-23q-119 0-215 34.5t-156 93-92 133T119 395zm184 6q0-106 85-181t233-75q210 0 299 164L545 686l-78-45q-164-96-164-240zm111 756q0-50 24-95.5T516 961l64-66 92 61q129 85 129 199 0 82-56 131t-141 49q-87 0-138.5-51T414 1157z"/><glyph unicode="'" horiz-adv-x="382" d="M104 1520h175l-31-551H135z"/><glyph unicode="(" horiz-adv-x="716" d="M150 543q0 309 81.5 558.5T444 1522h183q-138-179-223-431.5T319 543 404-4.5 627-436H444Q313-265 231.5-15.5T150 543z"/><glyph unicode=")" horiz-adv-x="716" d="M90-436Q228-257 312.5-4.5T397 543t-84.5 547.5T90 1522h182q131-172 213-421t82-558-82-558-213-421H90z"/><glyph unicode="*" horiz-adv-x="935" d="m63 1147 43 135 291-123-24-82zm113-342 205 237 70-49-164-270zm223 686h138l-27-311h-84zm86-498 70 49 205-237-111-82zm54 166 290 123 43-135-309-70z"/><glyph unicode="+" horiz-adv-x="1204" d="M109 668v147h417v430h152V815h418V668H678V238H526v430H109z"/><glyph unicode="," horiz-adv-x="602" d="m115-301 114 580h187L250-301H115z"/><glyph unicode="-" horiz-adv-x="720" d="M117 485v164h487V485H117z"/><glyph unicode="." horiz-adv-x="602" d="M168 113q0 55 40 95t95 40 95-40 40-95q0-56-40-96t-95-40-95 40-40 96z"/><glyph unicode="/" horiz-adv-x="913" d="m37-78 688 1639h152L188-78H37z"/><glyph unicode="0" horiz-adv-x="1265" d="M127 741q0 392 141 584 65 88 159.5 134t205.5 46 205-46 159-134q142-194 142-584 0-389-142-583-66-89-159.5-135T633-23 427.5 23 268 158Q127 350 127 741zm195 0q0-346 106-483 80-100 205-100t205 100q106 137 106 483 0 347-106 484-80 100-205 100t-205-100q-106-137-106-484z"/><glyph unicode="1" horiz-adv-x="1042" d="M158 1112v186l534 207V0H498v1243z"/><glyph unicode="2" horiz-adv-x="1150" d="m49 4 490 588q132 158 189.5 263.5T786 1061q0 126-80 195t-212 69q-82 0-169.5-28T162 1214v197q63 41 152.5 67.5T504 1505q134 0 240-48t171.5-148 65.5-238q0-142-70-275T696 489L438 180l2-4h594V0H51z"/><glyph unicode="3" horiz-adv-x="1136" d="M109 115v223q183-180 405-180 135 0 219 68t84 184q0 113-80.5 180T502 657H362v172h134q137 0 213.5 68.5T786 1077q0 114-78 181t-206 67q-163 0-305-100v198q137 82 315 82 205 0 337-113t132-296q0-124-64.5-214T743 760v-4q132-28 200.5-124t68.5-226q0-192-139.5-310.5T516-23q-123 0-230.5 38.5T109 115z"/><glyph unicode="4" horiz-adv-x="1308" d="m37 362 764 1121h178V530h266V358H979V0H786v358H39zm311 173 2-5h436v351q0 78 5 303l-5 2q-54-88-184-279z"/><glyph unicode="5" horiz-adv-x="1114" d="m115 76 14 203q164-121 358-121 147 0 239.5 70.5T819 420q0 66-30 117.5t-77.5 83-112.5 52T471.5 701 342 709q-80 0-166-13l60 787h737l-15-176H416l-31-428q96 0 183.5-14t170-47.5 142.5-84 96.5-129T1014 428q0-204-146-327.5T487-23q-214 0-372 99z"/><glyph unicode="6" horiz-adv-x="1226" d="M104 467q0 104 40.5 212T285 948l331 535h224L487 922q-40-62-55-91l4-2q90 66 226 66 125 0 228-57.5T1052.5 677t59.5-231q0-203-143-336T608-23q-219 0-361.5 135.5T104 467zm197-18q0-119 87-209t222-90q128 0 219 81t91 209q0 124-86.5 207.5T614 731q-131 0-222-80.5T301 449z"/><glyph unicode="7" horiz-adv-x="1142" d="M98 1307v176h967l2-4L449 0H246l547 1307H98z"/><glyph unicode="8" horiz-adv-x="1236" d="M121 416q0 131 67.5 228T377 782v4q-215 88-215 314 0 175 126.5 290T618 1505t330-115 127-290q0-226-215-314v-4q121-41 188.5-138t67.5-228q0-191-137.5-315T618-23 258 101 121 416zm192 4q0-120 87.5-195T618 150t218 75.5T924 420q0 120-89 197t-217 77-216.5-77T313 420zm33 672q0-104 79-173t193-69 193.5 69 79.5 173q0 105-78 173t-195 68q-116 0-194-68t-78-173z"/><glyph unicode="9" horiz-adv-x="1200" d="M92 1034q0 134 66 242t182 168.5 260 60.5q217 0 356.5-132.5T1096 1028q0-119-43.5-224T918 553L571 0H348l397 633-4 4q-81-49-200-49-89 0-171 33t-143.5 90.5-98 141.5T92 1034zm193 6q0-122 85.5-204T592 754t221.5 82.5T899 1038q0 118-87 205.5T594 1331q-127 0-218-81.5T285 1040z"/><glyph unicode=":" horiz-adv-x="602" d="M168 111q0 55 39 94t94 39 94-39 39-94q0-56-39-95t-94-39-94 39-39 95zm0 786q0 55 39 94t94 39 94-39 39-94-39-94-94-39-94 39-39 94z"/><glyph unicode=";" horiz-adv-x="602" d="m115-301 114 580h187L250-301H115zm53 1198q0 55 39 94t94 39 94-39 39-94-39-94-94-39-94 39-39 94z"/><glyph unicode="&lt;" horiz-adv-x="1406" d="M184 688v107l1039 442v-158L430 743v-4l793-336V246z"/><glyph unicode="=" horiz-adv-x="1204" d="M109 459v147h987V459H109zm0 418v147h987V877H109z"/><glyph unicode="&gt;" horiz-adv-x="1406" d="M184 246v157l793 336v4l-793 336v158l1039-442V688z"/><glyph unicode="?" horiz-adv-x="956" d="M109 1423q58 37 137.5 59.5T408 1505q202 0 337.5-129T881 1061q0-179-126-303T440 612l9-221H276l-43 369q134 0 234 30t159.5 96 59.5 163q0 121-82 198.5T401 1325q-66 0-140.5-24T129 1235zM258 106q0 54 37.5 92t91.5 38 91.5-38 37.5-92-37.5-91.5T387-23t-91.5 37.5T258 106z"/><glyph unicode="@" horiz-adv-x="1652" d="M70 504q0 213 97.5 387.5T439 1167t388 101q161 0 302.5-60t240.5-161.5T1526 807t57-291q0-183-80-294t-231-111q-85 0-144.5 34.5T1038 236h-4Q925 109 762 109q-141 0-231.5 97.5T440 459q0 85 28.5 164t80 140.5T677 862t167 37q113 0 211-72l114 21-34-399q-2-20-2-37 0-97 40-148t113-51q89 0 142 73.5t53 219.5q0 179-80 329.5t-230.5 242T829 1169q-145 0-269-53.5t-208.5-144-132-212T172 504q0-135 47.5-256.5T351 35.5t207.5-144T825-162q253 0 435 154l55-84q-98-82-224-125t-264-43q-215 0-389 101T167 116.5 70 504zm505-41q0-105 55.5-170.5T782 227q61 0 119.5 29.5T1001 342q-4 35 3 115l20 243q-35 35-84.5 57.5T836 780q-115 0-188-96t-73-221z"/><glyph unicode="A" horiz-adv-x="1429" d="m10 0 611 1483h186L1419 0h-209l-166 414H377L209 0H10zm434 584h533L856 891q-84 212-141 366h-4q-42-114-146-372z"/><glyph unicode="B" horiz-adv-x="1298" d="M166 0v1483h397q141 0 232-17t163-61q175-105 175-303 0-120-63-199.5T907 788v-4q134-32 209.5-119.5T1192 438q0-106-44-194.5T1022 98q-76-54-186-76T559 0H166zm194 176h211q127 0 203 14.5T901 240q96 67 96 194 0 122-91.5 187T647 686H360V176zm0 660h293q78 0 140.5 23T897 935.5t41 131.5q0 125-104 188-51 30-117 41t-180 11H360V836z"/><glyph unicode="C" horiz-adv-x="1394" d="M84 737q0 157 56 297.5T295 1279t245 165 316 61q234 0 418-104v-213q-86 63-195.5 100T854 1325q-166 0-298-77t-204.5-210T279 741t73-296.5T561 235t309-77q241 0 426 149V92q-88-56-202.5-85.5T860-23q-166 0-311 58T302.5 194t-160 241.5T84 737z"/><glyph unicode="D" horiz-adv-x="1505" d="M166 0v1483h407q323 0 525-121 159-96 245.5-257.5T1430 748q0-185-77-341.5T1135 150Q1020 69 872 34.5T524 0H166zm194 176h195q143 0 249 22t191 76q109 70 174.5 192.5T1235 741q0 154-66 273.5T997 1204q-89 59-198.5 81T551 1307H360V176z"/><glyph unicode="E" horiz-adv-x="1128" d="M166 0v1483h856v-176H360V856h580V686H360V176h680V0H166z"/><glyph unicode="F" horiz-adv-x="1138" d="M166 0v1483h876v-176H360V827h601V657H360V0H166z"/><glyph unicode="G" horiz-adv-x="1505" d="M84 737q0 162 58 304t160 244 248 161 316 59q257 0 455-123v-221q-92 76-211.5 120T862 1325q-170 0-304-78t-206.5-211T279 741q0-118 41-224.5t114.5-187 186-128T868 154q171 0 303 69v346H840v170h526V127q-100-69-237-109.5T852-23q-162 0-304.5 57.5t-244 157T143 433 84 737z"/><glyph unicode="H" horiz-adv-x="1527" d="M166 0v1483h194V858h807v625h195V0h-195v682H360V0H166z"/><glyph unicode="I" horiz-adv-x="526" d="M166 0v1483h194V0H166z"/><glyph unicode="J" horiz-adv-x="815" d="M59 20v185q112-47 211-47 47 0 80.5 12.5T404 204t31.5 56 15.5 71.5 4 88.5v1063h194V430q0-128-19-204.5T571 100Q470-23 274-23q-97 0-215 43z"/><glyph unicode="K" horiz-adv-x="1284" d="M166 0v1483h194V811l5-2 647 674h241L588 795 1311 0h-254L365 766l-5-2V0H166z"/><glyph unicode="L" horiz-adv-x="1120" d="M166 0v1483h194V176h701V0H166z"/><glyph unicode="M" horiz-adv-x="1759" d="M166 0v1483h188l527-754 526 754h186V0h-194v836q0 145 4 321l-4 2q-165-245-199-293L877 403 553 866q-34 48-199 293l-4-2q4-176 4-321V0H166z"/><glyph unicode="N" horiz-adv-x="1581" d="M166 0v1483h184l621-824q134-176 256-346l4 2q-4 258-4 422v746h188V0h-184L610 823q-134 176-256 346l-4-2q4-258 4-422V0H166z"/><glyph unicode="O" horiz-adv-x="1671" d="M82 741q0 159 58 300.5t157.5 243 239.5 161 299 59.5q211 0 384-100.5t271-276 98-387.5-98-387.5-271-276T836-23q-159 0-299 59.5t-239.5 161-157.5 243T82 741zm194 0q0-161 71.5-294.5t200.5-211T836 158t287.5 77.5 200 211T1395 741q0 162-71.5 295.5t-200 211T836 1325q-119 0-223.5-45.5t-178-124-116-186T276 741z"/><glyph unicode="P" horiz-adv-x="1273" d="M166 0v1483h387q146 0 248.5-14.5T991 1405q215-120 215-367 0-122-54-217t-146-151q-87-53-202-68.5T514 586H360V0H166zm194 756h179q144 0 220 10.5T893 811q119 72 119 219 0 159-138 230-61 31-135.5 39t-201.5 8H360V756z"/><glyph unicode="Q" horiz-adv-x="1671" d="M82 741q0 159 58 300.5t157.5 243 239.5 161 299 59.5q211 0 384-100.5t271-276 98-387.5q0-260-144.5-459T1065 12V8q215-146 473-237l-190-115Q1078-237 819-23q-155 3-292 63.5T292.5 202t-154 241.5T82 741zm194 0q0-161 71.5-294.5t200.5-211T836 158t287.5 77.5 200 211T1395 741q0 162-71.5 295.5t-200 211T836 1325q-119 0-223.5-45.5t-178-124-116-186T276 741z"/><glyph unicode="R" horiz-adv-x="1323" d="M166 0v1483h401q138 0 235-14t179-60q96-53 150.5-140t54.5-206q0-166-101-275T825 653L1300 0h-235L612 635H360V0H166zm194 795h252q202 0 291 67 88 66 88 185 0 143-121 210-56 30-127.5 40T553 1307H360V795z"/><glyph unicode="S" horiz-adv-x="1148" d="M94 1092q0 194 130 303.5T573 1505q111 0 226-28t200-82v-205q-96 67-212 102t-218 35q-129 0-205.5-56.5T287 1104q0-49 17.5-87t42.5-62 70.5-45 82-32.5T595 850q29-8 44-12 75-21 128-41t114-55 98.5-78 62.5-108.5 25-147.5q0-200-135.5-315.5T571-23Q459-23 338.5 7.5T125 94v213q98-75 219.5-113T573 156q137 0 219 61.5T874 397q0 37-9.5 68t-24 54-40 42.5-50.5 33-62 27-68 22.5-74 21q-27 7-40 11-59 17-104 33t-95 40.5-86 55.5-66 71.5-45.5 95T94 1092z"/><glyph unicode="T" horiz-adv-x="1271" d="M41 1307v176h1190v-176H733V0H539v1307H41z"/><glyph unicode="U" horiz-adv-x="1495" d="M150 698v785h194V719q0-144 12.5-232.5T401 336q95-178 353-178 255 0 348 178 33 62 44 148.5t11 226.5v772h189V721q0-183-19.5-302T1247 209q-72-109-202.5-170.5T745-23 447.5 39 248 209q-59 91-78.5 208.5T150 698z"/><glyph unicode="V" horiz-adv-x="1359" d="M10 1483h209l316-832q76-200 145-393h4q53 146 150 399l317 826h199L780 0H582z"/><glyph unicode="W" horiz-adv-x="2074" d="M25 1483h206l248-803q64-206 117-387h4q37 127 119 389l252 801h143l252-803q78-248 119-387h4q45 156 117 389l247 801h197L1589 0h-207l-237 754q-59 188-105 344h-4q-65-224-104-346L696 0H485z"/><glyph unicode="X" horiz-adv-x="1349" d="m-4 0 555 786-488 697h232l227-328q111-159 160-235h4q63 97 160 237l225 326h217L803 786 1358 0h-234L840 406Q740 549 672 651h-4q-70-106-164-239L215 0H-4z"/><glyph unicode="Y" horiz-adv-x="1341" d="M4 1483h225l252-363q191-278 193-282h4q73 113 192 284l250 361h217L770 672V0H575v670z"/><glyph unicode="Z" horiz-adv-x="1308" d="m59 4 840 1299-2 4H113v176h1126l2-4L401 180l2-4h822V0H61z"/><glyph unicode="[" horiz-adv-x="737" d="M197-436v1958h444v-148H367V-289h274v-147H197z"/><glyph unicode="\" horiz-adv-x="913" d="M37 1561h151L877-78H725z"/><glyph unicode="]" horiz-adv-x="737" d="M96-289h275v1663H96v148h445V-436H96v147z"/><glyph unicode="^" horiz-adv-x="1177" d="m145 741 377 764h133l377-764H879l-289 564h-2L299 741H145z"/><glyph unicode="_" horiz-adv-x="972" d="M0-184h973v-107H0v107z"/><glyph unicode="`" horiz-adv-x="1028" d="M268 1489h207l158-336H494z"/><glyph unicode="a" horiz-adv-x="1089" d="M94 272q0 80 33.5 142t92 98.5 132 55T510 586q104 0 215-27v84q0 116-60 168.5T481 864q-171 0-309-100v180q143 86 336 86 190 0 295.5-86T909 674V246q0-49 19.5-78t58.5-29q30 0 60 15V0q-45-18-99-18-62 0-114 27t-80 79h-4q-48-45-132-78T440-23q-143 0-239 72Q94 128 94 272zm187 17q0-71 53.5-109.5T473 141q69 0 136.5 24.5T725 229v189q-89 26-197 26-107 0-177-36.5T281 289z"/><glyph unicode="b" horiz-adv-x="1218" d="M162 0v1565h184V950l4-2q126 82 285 82 101 0 191-37.5T982.5 889t105-162.5T1126 518q0-234-151.5-387.5T592-23q-120 0-252 54zm184 205q50-29 119.5-47.5T598 139q152 0 247 104.5T940 508q0 155-90.5 255.5T612 864q-150 0-266-94V205z"/><glyph unicode="c" horiz-adv-x="1044" d="M92 498q0 152 74 274.5t202 190 283 67.5q150 0 273-63V776q-136 86-281 86-161 0-262.5-104.5T279 498t103.5-254T649 145t291 99V47Q812-23 639-23q-238 0-392.5 148T92 498z"/><glyph unicode="d" horiz-adv-x="1222" d="M96 487q0 153 67 277t189.5 195 278.5 71q120 0 241-53l5 2v586h184V0H877v61l-5 2Q748-23 590-23q-136 0-248 61.5t-179 179T96 487zm187 11q0-155 89.5-256T614 141q137 0 263 86v576q-122 63-248 63-157 0-251.5-104.5T283 498z"/><glyph unicode="e" horiz-adv-x="1153" d="M92 504q0 154 69.5 275.5t183.5 186 249 64.5q125 0 228-55t167-167.5 64-264.5q0-55-6-92H276q20-147 120.5-227.5T649 143q184 0 348 125V72Q929 29 831.5 3T637-23q-236 0-390.5 146T92 504zm189 92h593q-6 72-33.5 126T771 806t-87.5 44-93.5 14q-109 0-197.5-68.5T281 596z"/><glyph unicode="f" horiz-adv-x="704" d="M53 842v166h160v192q0 107 19.5 180.5T303 1503q87 84 236 84 81 0 151-20v-166q-70 18-143 18-46 0-77-14.5t-46-42.5-21-59.5-6-75.5v-219h258V842H397V0H213v842H53z"/><glyph unicode="g" horiz-adv-x="1218" d="M98 502q0 107 36 202.5t102 168 165.5 115T621 1030q139 0 256-57l178 31V4q0-221-137-349T549-473q-172 0-320 76v196q158-104 320-104 146 0 233.5 82T870 0v74l-4 2Q750-2 592-2 456-2 343 61.5T164 241 98 502zm187 12q0-154 92.5-254T618 160q69 0 137.5 22.5T870 242v555q-49 30-118 49.5T616 866q-149 0-240-100.5T285 514z"/><glyph unicode="h" d="M162 0v1565h184V881l4-2q69 69 159.5 110t192.5 41q173 0 269-110 43-50 63.5-117.5T1055 623V0H870v588q0 84-11 129.5T821 793q-56 65-153 65-88 0-175.5-47.5T346 690V0H162z"/><glyph unicode="i" horiz-adv-x="507" d="M125 1354q0 54 37.5 91.5T254 1483t91.5-37.5T383 1354t-37.5-91.5T254 1225t-91.5 37.5T125 1354zM162 0v1008h184V0H162z"/><glyph unicode="j" horiz-adv-x="509" d="M-90-291q68-14 115-14 82 0 110.5 48T164-113v1121h184V-104q0-194-69-273-82-96-248-96-65 0-121 16v166zm217 1645q0 54 37.5 91.5T256 1483t91.5-37.5T385 1354t-37.5-91.5T256 1225t-91.5 37.5T127 1354z"/><glyph unicode="k" horiz-adv-x="1081" d="M162 0v1565h184V565l4-2 451 445h235L575 557 1085 0H844L350 547l-4-2V0H162z"/><glyph unicode="l" horiz-adv-x="507" d="M162 0v1565h184V0H162z"/><glyph unicode="m" horiz-adv-x="1890" d="M162 0v1008h184V885l4-2q147 147 342 147 99 0 182-43.5T1001 856q183 174 383 174 173 0 265-106 45-50 64.5-120t19.5-175V0h-185v596q0 142-51 201-53 61-154 61-83 0-166.5-46T1036 700q2-23 2-71V0H854v596q0 81-10.5 124.5T807 795q-55 63-154 63-85 0-168-45.5T346 700V0H162z"/><glyph unicode="n" d="M162 0v1008h184V881l4-2q69 69 159.5 110t192.5 41q173 0 269-110 43-50 63.5-117.5T1055 623V0H870v588q0 149-47 205-54 65-161 65-85 0-173-47.5T346 690V0H162z"/><glyph unicode="o" horiz-adv-x="1249" d="M92 504q0 223 152.5 374.5T625 1030q150 0 272-69t191-189.5 69-267.5-69-267.5-191-190T625-23 352.5 46.5 161 236.5 92 504zm184 0q0-153 99.5-256T625 145t249 103 99 256-99 255.5T625 862 375.5 759.5 276 504z"/><glyph unicode="p" horiz-adv-x="1218" d="M162-451v1459h184v-66l4-2q129 90 287 90 135 0 245.5-65t176-185 65.5-272q0-119-41.5-219.5T970 120.5 803 15 598-23q-134 0-248 56l-4-2v-482H162zm184 660q126-70 256-70 150 0 243 99.5T938 494q0 157-92 263.5T606 864q-68 0-137.5-24T346 772V209z"/><glyph unicode="q" horiz-adv-x="1222" d="M96 496q0 236 152 385t381 149q132 0 252-57l180 31V-451H877V55l-5 2Q742-23 594-23q-102 0-193 37.5t-158.5 104-107 164.5T96 496zm187 10q0-155 92-261t241-106q68 0 138 22.5T877 225v572q-123 69-254 69-152 0-246-101.5T283 506z"/><glyph unicode="r" horiz-adv-x="751" d="M162 0v1008h184V860l4-2q53 74 131.5 116t167.5 42q35 0 66-8V825q-37 9-72 9-194 0-297-179V0H162z"/><glyph unicode="s" horiz-adv-x="1021" d="M102 721q1 101 56.5 172t147 104 210.5 33q94 0 191-20.5T877 950V766q-82 48-180 73t-189 25q-101 0-160-32t-59-97q0-24 7.5-42.5t25-31 35-21.5 48-15.5 53-10.5 61.5-10 63-10q65-11 111.5-23t95-34.5 78-52.5 48.5-77 19-108q0-84-35.5-148T802 50 667.5-5 510-23q-222 0-377 82v193q83-54 185-81.5T518 143q108 0 169 34.5T748 283q0 25-7.5 44.5t-26 33.5-35.5 23-49.5 16.5T575 412t-64 10-65 10q-64 11-111 23.5t-93 35-75 52.5-47 75-18 103z"/><glyph unicode="t" horiz-adv-x="796" d="M53 842v166h187v274l184 31v-305h303V842H424V385q0-53 5-91t20-74.5 46.5-55.5 79.5-19q85 0 152 43V14q-76-37-182-37-147 0-230 95-75 84-75 278v492H53z"/><glyph unicode="u" d="M158 391v617h184V426q0-83 11.5-130.5T391 217q56-70 160-70 88 0 172 49t143 123v689h185V0H866v127l-4 2Q710-23 514-23q-80 0-152.5 28.5T240 90q-82 98-82 301z"/><glyph unicode="v" horiz-adv-x="1120" d="M45 1008h201l186-455q78-194 129-324h4q52 133 135 336l183 443h192L653 0H469z"/><glyph unicode="w" horiz-adv-x="1689" d="M53 1008h201l149-449q41-121 101-311h4q65 189 110 311l166 449h131l166-449q50-134 111-311h4q56 184 98 309l150 451h192L1286 0h-182L946 432q-35 93-98 283h-4q-56-170-99-283L588 0H403z"/><glyph unicode="x" horiz-adv-x="1028" d="m-6 0 403 535-356 473h217l109-148q95-130 149-207h4q27 38 150 209l106 146h209L633 539 1036 0H819L670 203Q546 373 514 418h-4q-26-37-87-119.5T350 199L203 0H-6z"/><glyph unicode="y" horiz-adv-x="1126" d="M45 1008h205l176-381q60-130 137-303h4q67 150 138 303l176 381h194L393-451H193l272 560z"/><glyph unicode="z" horiz-adv-x="964" d="m39 4 551 832-2 4H80v168h833l2-4-550-832 2-4h536V0H41z"/><glyph unicode="{" horiz-adv-x="782" d="M68 469v147h51q53 0 85.5 9.5t49 32.5 22 52 5.5 78v433q0 159 72.5 241t228.5 82q75 0 123-10v-145q-36 8-99 8-89 0-122-44.5T451 1200V799q0-109-27.5-170.5T324 545v-4q72-22 99.5-83.5T451 287v-402q0-108 33-152t122-44q63 0 99 8v-146q-48-10-123-10-156 0-228.5 82T281-135v432q0 49-5.5 78t-22 52-49 32.5T119 469H68z"/><glyph unicode="|" horiz-adv-x="655" d="M252-451v2089h151V-451H252z"/><glyph unicode="}" horiz-adv-x="782" d="M78-303q36-8 98-8 89 0 122.5 44T332-115v402q0 109 27.5 170.5T459 541v4q-72 22-99.5 83.5T332 799v401q0 108-33.5 152.5T176 1397q-62 0-98-8v145q48 10 123 10 156 0 228.5-82t72.5-241V788q0-49 5.5-78t22-52 49-32.5T664 616h51V469h-51q-53 0-85.5-9.5t-49-32.5-22-52-5.5-78v-432q0-160-72.5-242T201-459q-75 0-123 10v146z"/><glyph unicode="~" horiz-adv-x="1134" d="M154 604v207q71 80 194 80 95 0 240-74 49-25 70.5-35.5t58-21T786 750q66 0 110 35t81 96l4-2V672q-74-80-195-80-94 0-239 74-48 25-70.5 35.5t-59 21T348 733q-115 0-190-131z"/><glyph unicode="¡" horiz-adv-x="626" d="M186 901q0 54 37.5 91.5T315 1030t91.5-37.5T444 901t-37.5-91.5T315 772t-91.5 37.5T186 901zm23-1376 49 1028h115l49-1028H209z"/><glyph unicode="¢" horiz-adv-x="1060" d="M84 733q0 194 114.5 334.5T500 1251v269h149v-252q148 0 273-66v-192q-137 90-281 90-167 0-269-104T270 737q0-157 103.5-255.5T643 383q169 0 297 106V291q-124-73-291-76V-37H500v264q-188 40-302 178T84 733z"/><glyph unicode="£" horiz-adv-x="1175" d="M164 0v145q77 62 131.5 157T350 502q0 59-20 131H164v155h108q-23 58-35.5 94.5t-24 93T201 1083q0 130 64.5 227t173 146 245.5 49q96 0 186.5-24t149.5-60v-207q-75 55-162.5 83T688 1325q-130 0-211.5-68.5T395 1075q0-13 1.5-27.5t3-26.5 5.5-29 6.5-27 9-30 9-28.5T440 876t10.5-28 11.5-31 11-29h381V633H520q15-77 15-123 0-96-36.5-181.5T403 180v-4h674V0H164z"/><glyph unicode="¤" horiz-adv-x="1241" d="m98 319 156 156q-70 106-70 242 0 135 70 241L98 1114l121 121 154-154q109 72 248 72 138 0 247-72l154 154 121-121-156-156q70-106 70-241 0-136-70-242l156-156-121-120-154 153q-107-71-247-71-141 0-248 71L219 199zm234 398q0-124 82-207.5T621 426t206.5 83.5T909 717t-81.5 207.5T621 1008t-207-83.5T332 717z"/><glyph unicode="¥" horiz-adv-x="1370" d="M68 1483h223l203-291q151-220 192-283h4q69 106 193 285l200 289h217L946 979h238V829H842l-60-86V598h402V449H782V0H588v449H186v149h402v143l-62 88H186v150h234z"/><glyph unicode="¦" horiz-adv-x="655" d="M252 352h151v-803H252v803zm0 484v802h151V836H252z"/><glyph unicode="§" horiz-adv-x="1157" d="M113 625q0 200 215 286v4q-119 89-119 242 0 154 114.5 247t290.5 93q160 0 289-74v-184q-142 94-287 94-98 0-160.5-44.5T393 1163q0-26 8-48.5t18.5-39.5 32.5-34 38.5-28 49.5-25 51.5-21 58-21.5T707 924q60-22 103-41.5t94-52.5 82.5-69 53-89.5T1061 555q0-109-57.5-178.5T848 274v-4q119-97 119-247 0-156-113.5-248T557-317q-179 0-313 77v189q159-103 311-103 100 0 163.5 45T782 20q0 23-4.5 42.5t-16.5 37-22 30.5-33.5 27.5-37 23-46.5 22-48 19.5-55 21l-56 21q-58 22-101 42t-93 52.5-81.5 68-53 87T113 625zm184 12q0-21 5-40t11.5-34 20.5-30 24.5-25.5 32.5-23 35-19.5 41-18.5 41.5-16.5 46-16.5T600 397q21-8 92-37 87 18 136 65t49 120q0 48-21 84.5T792.5 693 705 739.5 593 784l-9 3-8 3-9 3q-15 5-73 28-197-42-197-184z"/><glyph unicode="¨" horiz-adv-x="1028" d="M201 1321q0 46 33 79.5t79 33.5 79.5-33.5T426 1321t-33.5-79.5T313 1208t-79 33.5-33 79.5zm401 0q0 46 33.5 79.5T715 1434t79-33.5 33-79.5-33-79.5-79-33.5-79.5 33.5T602 1321z"/><glyph unicode="©" horiz-adv-x="1654" d="M70 741q0 158 57.5 299.5T285 1284t241 161.5 301 59.5 301-59.5 241-161.5 158-243.5 58-299.5-58-299.5T1369 198 1128 36.5 827-23 526 36.5 285 198 127.5 441.5 70 741zm96 0q0-186 83-338.5T484 161t343-89 343 89 235.5 241.5T1489 741t-83.5 339-235.5 242-343 89q-143 0-267-52t-210-142-135-213.5T166 741zm268 7q0 181 123 301t311 120q124 0 226-55V979q-104 74-228 74-133 0-218-87t-85-216q0-130 86-214.5T872 451q134 0 234 84V395q-98-61-240-61-188 0-310 117.5T434 748z"/><glyph unicode="ª" horiz-adv-x="743" d="M100 1016q0 102 76 151.5t195 49.5q69 0 133-15v47q0 135-150 135-106 0-200-63v131q87 55 217 55 126 0 198-56.5t72-174.5v-272q0-66 47-66 20 0 37 10V838q-30-15-70-15-89 0-129 64h-2q-78-66-196-66-94 0-161 53t-67 142zm136 4q0-43 32-65.5t84-22.5q89 0 152 53v115q-53 16-119 16-64 0-106.5-22.5T236 1020z"/><glyph unicode="«" horiz-adv-x="1122" d="m94 504 340 448h160L254 504 594 55H434zm418 0 340 448h160L672 504l340-449H852z"/><glyph unicode="¬" horiz-adv-x="1204" d="M111 668v147h987V238H946v430H111z"/><glyph unicode="­" horiz-adv-x="720" d="M117 485v164h487V485H117z"/><glyph unicode="®" horiz-adv-x="917" d="M76 1124q0 164 108.5 272.5T459 1505t274.5-108.5T842 1124 733.5 851.5 459 743 184.5 851.5 76 1124zm61 0q0-139 91-230t231-91 230.5 91 90.5 230-90.5 230.5T459 1446t-231-91.5-91-230.5zm182-206v413h148q66 0 111-35.5t45-97.5q0-44-25.5-75.5T532 1077l101-159h-84l-88 149h-68V918h-74zm74 212h68q39 0 62.5 17.5T547 1198q0 32-23.5 49t-62.5 17h-68v-134z"/><glyph unicode="¯" horiz-adv-x="1028" d="M233 1251v140h562v-140H233z"/><glyph unicode="°" horiz-adv-x="774" d="M80 1204q0 127 87.5 214t219.5 87 219.5-87 87.5-214-87.5-214T387 903t-219.5 87T80 1204zm98 0q0-85 60-145t149-60 149 60 60 145-60 145-149 60-149-60-60-145z"/><glyph unicode="±" horiz-adv-x="1204" d="M135 160v147h934V160H135zm0 696v148h391v368h152v-368h391V856H678V487H526v369H135z"/><glyph unicode="²" horiz-adv-x="749" d="m39 868 297 346q143 166 143 275 0 65-43.5 101T319 1626q-107 0-213-76v156q103 61 226 61 137 0 220-74.5t83-199.5q0-150-152-326l-137-159 2-4h320V864H41z"/><glyph unicode="³" horiz-adv-x="727" d="M74 920v161q127-92 254-92 77 0 124.5 35.5T500 1122q0 57-47 91t-138 34h-90v123h84q81 0 124.5 35.5T477 1499q0 60-45 94.5T311 1628q-101 0-188-61v147q85 53 209 53 129 0 215-69t86-178q0-65-32.5-119.5T504 1327v-4q57-17 92.5-54t47-74.5T655 1114q0-119-91.5-191.5T328 850q-150 0-254 70z"/><glyph unicode="´" horiz-adv-x="1028" d="m395 1153 158 336h207l-225-336H395z"/><glyph unicode="µ" horiz-adv-x="1216" d="M162-451v1459h184V426q0-83 11.5-130.5T395 217q56-70 160-70 88 0 172 49t143 123v689h185V0H870v127l-4 2Q714-23 524-23q-108 0-184 48l-4-2 18-474H162z"/><glyph unicode="¶" horiz-adv-x="1167" d="M115 1112q0 154 109.5 262.5T489 1483h474V-451H811v1794H641V-451H489V741q-155 0-264.5 108.5T115 1112z"/><glyph unicode="·" horiz-adv-x="602" d="M166 618q0 56 40 96t95 40 95-40 40-96-40-95.5-95-39.5-95 39.5-40 95.5z"/><glyph unicode="¸" horiz-adv-x="1028" d="m346-416 31 105q76-39 131-39 42 0 70 18.5t28 52.5q0 28-18.5 48.5t-48.5 31-59.5 16T418-176l74 242 92-21-41-133q182-41 182-184 0-82-58.5-131.5T510-453q-88 0-164 37z"/><glyph unicode="¹" horiz-adv-x="667" d="M96 1497v141l359 129V864H303v707z"/><glyph unicode="º" horiz-adv-x="837" d="M70 1163q0 149 96.5 245.5T418 1505q154 0 251-96.5t97-245.5-97-245.5T418 821q-155 0-251.5 96.5T70 1163zm139 0q0-95 58-156t151-61 151 61 58 156-58 156-151 61-151-61-58-156z"/><glyph unicode="»" horiz-adv-x="1122" d="m111 55 340 449-340 448h159l340-448L270 55H111zm417 0 340 449-340 448h160l340-448L688 55H528z"/><glyph unicode="¼" horiz-adv-x="1921" d="M131 1235v141l358 129V602H338v707zM354-27l977 1510h168L522-27H354zm680 236 479 680h142V328h153V205h-153V0h-152v205h-467zm228 123 2-4h239v147q0 95 4 205l-4 2q-63-97-119-176z"/><glyph unicode="½" horiz-adv-x="2002" d="M131 1235v141l358 129V602H338v707zM354-27l977 1510h168L522-27H354zm867 31 297 346q143 166 143 275 0 65-43.5 101T1501 762q-107 0-213-76v156q103 61 225 61 137 0 220.5-74.5T1817 629q0-150-152-326l-137-160 2-4h319V0h-626z"/><glyph unicode="¾" horiz-adv-x="2023" d="M139 657v162q127-92 254-92 77 0 124.5 35.5T565 860q0 58-46.5 91.5T381 985h-90v123h84q81 0 124.5 35.5T543 1237q0 60-45 94.5T377 1366q-102 0-189-61v147q85 53 209 53 129 0 215-69.5t86-178.5q0-65-32.5-119t-96.5-73v-4q57-17 92.5-54t47.5-74.5 12-80.5q0-119-92-191.5T393 588q-151 0-254 69zM457-27l977 1510h168L625-27H457zm680 236 479 680h141V328h154V205h-154V0h-151v205h-467zm227 123 2-4h240v147q0 95 4 205l-4 2q-63-97-119-176z"/><glyph unicode="¿" horiz-adv-x="956" d="M86-53q0 179 125.5 302.5T526 395l-8 221h172l43-368q-134 0-234-30t-159-96-59-163q0-121 82-198.5T565-317q66 0 141 24t132 66l20-189q-58-37-137.5-59.5T559-498q-202 0-337.5 129.5T86-53zm365 954q0 54 37.5 91.5T580 1030t91.5-37.5T709 901t-37.5-91.5T580 772t-91.5 37.5T451 901z"/><glyph unicode="À" horiz-adv-x="1429" d="m10 0 611 1483h186L1419 0h-209l-166 414H377L209 0H10zm434 584h533L856 891q-84 212-141 366h-4q-42-114-146-372zm25 1380h207l158-336H694z"/><glyph unicode="Á" horiz-adv-x="1429" d="m10 0 611 1483h186L1419 0h-209l-166 414H377L209 0H10zm434 584h533L856 891q-84 212-141 366h-4q-42-114-146-372zm152 1044 158 336h207l-226-336H596z"/><glyph unicode="Â" horiz-adv-x="1429" d="m10 0 611 1483h186L1419 0h-209l-166 414H377L209 0H10zm375 1628 231 336h197l231-336H891l-176 215-176-215H385zm59-1044h533L856 891q-84 212-141 366h-4q-42-114-146-372z"/><glyph unicode="Ã" horiz-adv-x="1429" d="m10 0 611 1483h186L1419 0h-209l-166 414H377L209 0H10zm383 1675v160q64 88 170 88 70 0 166-49 36-18 50.5-25t39.5-14.5 47-7.5q50 0 88.5 26.5t77.5 71.5l4-2v-160q-64-88-170-88-70 0-166 49-3 2-15 8l-15 7.5-13.5 6.5-14.5 6.5-12.5 5.5-13.5 5-12.5 3.5-13.5 3-13 1.5-14 1q-50 0-88-26.5t-78-72.5zm51-1091h533L856 891q-84 212-141 366h-4q-42-114-146-372z"/><glyph unicode="Ä" horiz-adv-x="1429" d="m10 0 611 1483h186L1419 0h-209l-166 414H377L209 0H10zm391 1796q0 46 33.5 79.5T514 1909t79.5-33.5T627 1796t-33.5-79.5T514 1683t-79.5 33.5T401 1796zm43-1212h533L856 891q-84 212-141 366h-4q-42-114-146-372zm359 1212q0 46 33 79.5t79 33.5 79.5-33.5 33.5-79.5-33.5-79.5T915 1683t-79 33.5-33 79.5z"/><glyph unicode="Å" horiz-adv-x="1429" d="m10 0 611 1483h186L1419 0h-209l-166 414H377L209 0H10zm434 584h533L856 891q-84 212-141 366h-4q-42-114-146-372zm31 1253q0 100 69.5 167t170.5 67 170-67 69-167-69-166.5-170-66.5q-102 0-171 67t-69 166zm111 0q0-56 35.5-93.5T715 1706t93.5 37.5T844 1837t-35.5 93.5T715 1968t-93.5-37.5T586 1837z"/><glyph unicode="Æ" horiz-adv-x="1918" d="m10 0 860 1483h942v-176h-636V856h555V686h-555V176h655V0H981v414H461L221 0H10zm549 584h422v338q0 183 4 395h-4q-94-171-209-367z"/><glyph unicode="Ç" horiz-adv-x="1394" d="M84 737q0 157 56 297.5T295 1279t245 165 316 61q234 0 418-104v-213q-86 63-195.5 100T854 1325q-166 0-298-77t-204.5-210T279 741t73-296.5T561 235t309-77q241 0 426 149V92Q1116-23 834-23l-21-65q182-41 182-184 0-82-58.5-131.5T780-453q-88 0-164 37l31 105q76-39 131-39 42 0 70.5 18.5T877-279q0 28-19 49t-50.5 31.5-60 15.5-59.5 7l49 162Q447 26 265.5 234T84 737z"/><glyph unicode="È" horiz-adv-x="1128" d="M166 0v1483h856v-176H360V856h580V686H360V176h680V0H166zm180 1964h207l158-336H571z"/><glyph unicode="É" horiz-adv-x="1128" d="M166 0v1483h856v-176H360V856h580V686H360V176h680V0H166zm307 1628 158 336h207l-226-336H473z"/><glyph unicode="Ê" horiz-adv-x="1128" d="M166 0v1483h856v-176H360V856h580V686H360V176h680V0H166zm96 1628 232 336h196l232-336H768l-176 215-176-215H262z"/><glyph unicode="Ë" horiz-adv-x="1128" d="M166 0v1483h856v-176H360V856h580V686H360V176h680V0H166zm113 1796q0 46 33 79.5t79 33.5 79.5-33.5T504 1796t-33.5-79.5T391 1683t-79 33.5-33 79.5zm401 0q0 46 33.5 79.5T793 1909t79-33.5 33-79.5-33-79.5-79-33.5-79.5 33.5T680 1796z"/><glyph unicode="Ì" horiz-adv-x="526" d="M16 1964h207l158-336H242zM166 0v1483h194V0H166z"/><glyph unicode="Í" horiz-adv-x="526" d="m143 1628 158 336h207l-225-336H143zM166 0v1483h194V0H166z"/><glyph unicode="Î" horiz-adv-x="526" d="m-68 1628 232 336h196l232-336H438l-176 215-176-215H-68zM166 0v1483h194V0H166z"/><glyph unicode="Ï" horiz-adv-x="526" d="M-51 1796q0 46 33 79.5t79 33.5 79.5-33.5T174 1796t-33.5-79.5T61 1683t-79 33.5-33 79.5zM166 0v1483h194V0H166zm184 1796q0 46 33.5 79.5T463 1909t79-33.5 33-79.5-33-79.5-79-33.5-79.5 33.5T350 1796z"/><glyph unicode="Ð" horiz-adv-x="1527" d="M6 676v160h182v647h408q322 0 524-121 159-96 245.5-257.5T1452 748q0-185-77-341.5T1157 150Q1042 69 894 34.5T547 0H188v676H6zm377-500h195q143 0 249 22t191 76q109 70 174 192t65 275q0 154-65.5 273.5T1020 1204q-89 59-199 81t-248 22H383V836h319V676H383V176z"/><glyph unicode="Ñ" horiz-adv-x="1581" d="M166 0v1483h184l621-824q134-176 256-346l4 2q-4 258-4 422v746h188V0h-184L610 823q-134 176-256 346l-4-2q4-258 4-422V0H166zm303 1675v160q64 88 170 88 70 0 166-49 36-18 50.5-25t39.5-14.5 47-7.5q50 0 88.5 26.5t77.5 71.5l4-2v-160q-64-88-170-88-70 0-166 49-3 2-15 8l-15 7.5-13.5 6.5-14.5 6.5-12.5 5.5-13.5 5-12.5 3.5-13.5 3-13 1.5-14 1q-50 0-88-26.5t-78-72.5z"/><glyph unicode="Ò" horiz-adv-x="1671" d="M82 741q0 159 58 300.5t157.5 243 239.5 161 299 59.5q211 0 384-100.5t271-276 98-387.5-98-387.5-271-276T836-23q-159 0-299 59.5t-239.5 161-157.5 243T82 741zm194 0q0-161 71.5-294.5t200.5-211T836 158t287.5 77.5 200 211T1395 741q0 162-71.5 295.5t-200 211T836 1325q-119 0-223.5-45.5t-178-124-116-186T276 741zm314 1223h207l157-336H815z"/><glyph unicode="Ó" horiz-adv-x="1671" d="M82 741q0 159 58 300.5t157.5 243 239.5 161 299 59.5q211 0 384-100.5t271-276 98-387.5-98-387.5-271-276T836-23q-159 0-299 59.5t-239.5 161-157.5 243T82 741zm194 0q0-161 71.5-294.5t200.5-211T836 158t287.5 77.5 200 211T1395 741q0 162-71.5 295.5t-200 211T836 1325q-119 0-223.5-45.5t-178-124-116-186T276 741zm441 887 157 336h207l-225-336H717z"/><glyph unicode="Ô" horiz-adv-x="1671" d="M82 741q0 159 58 300.5t157.5 243 239.5 161 299 59.5q211 0 384-100.5t271-276 98-387.5-98-387.5-271-276T836-23q-159 0-299 59.5t-239.5 161-157.5 243T82 741zm194 0q0-161 71.5-294.5t200.5-211T836 158t287.5 77.5 200 211T1395 741q0 162-71.5 295.5t-200 211T836 1325q-119 0-223.5-45.5t-178-124-116-186T276 741zm230 887 231 336h197l231-336h-153l-176 215-177-215H506z"/><glyph unicode="Õ" horiz-adv-x="1671" d="M82 741q0 159 58 300.5t157.5 243 239.5 161 299 59.5q211 0 384-100.5t271-276 98-387.5-98-387.5-271-276T836-23q-159 0-299 59.5t-239.5 161-157.5 243T82 741zm194 0q0-161 71.5-294.5t200.5-211T836 158t287.5 77.5 200 211T1395 741q0 162-71.5 295.5t-200 211T836 1325q-119 0-223.5-45.5t-178-124-116-186T276 741zm238 934v160q64 88 170 88 70 0 166-49 36-18 50.5-25t39.5-14.5 47-7.5q50 0 88.5 26.5t77.5 71.5l4-2v-160q-64-88-170-88-70 0-166 49-3 2-15 8l-15 7.5-13.5 6.5-14.5 6.5-12.5 5.5-13.5 5-12.5 3.5-13.5 3-13 1.5-14 1q-50 0-88-26.5t-78-72.5z"/><glyph unicode="Ö" horiz-adv-x="1671" d="M82 741q0 159 58 300.5t157.5 243 239.5 161 299 59.5q211 0 384-100.5t271-276 98-387.5-98-387.5-271-276T836-23q-159 0-299 59.5t-239.5 161-157.5 243T82 741zm194 0q0-161 71.5-294.5t200.5-211T836 158t287.5 77.5 200 211T1395 741q0 162-71.5 295.5t-200 211T836 1325q-119 0-223.5-45.5t-178-124-116-186T276 741zm246 1055q0 46 33.5 79.5T635 1909t79.5-33.5T748 1796t-33.5-79.5T635 1683t-79.5 33.5T522 1796zm402 0q0 46 33 79.5t79 33.5 79.5-33.5 33.5-79.5-33.5-79.5-79.5-33.5-79 33.5-33 79.5z"/><glyph unicode="×" horiz-adv-x="1204" d="m174 420 324 323-324 324 105 104 323-323 324 323 104-104-323-324 323-323-104-105-324 324-323-324z"/><glyph unicode="Ø" horiz-adv-x="1671" d="M82 741q0 159 58 300.5t157.5 243 239.5 161 299 59.5q252 0 440-139l127 150 106-91-127-149q99-105 153-242t54-293q0-212-98-387.5t-271-276T836-23q-252 0-441 140L268-33 162 57l127 150q-99 105-153 242T82 741zm194 0q0-228 136-389l743 873q-140 100-319 100-119 0-223.5-45.5t-178-124-116-186T276 741zm240-483q140-100 320-100 159 0 287.5 77.5t200 211T1395 741q0 229-135 389z"/><glyph unicode="Ù" horiz-adv-x="1495" d="M150 698v785h194V719q0-144 12.5-232.5T401 336q95-178 353-178 255 0 348 178 33 62 44 148.5t11 226.5v772h189V721q0-183-19.5-302T1247 209q-72-109-202.5-170.5T745-23 447.5 39 248 209q-59 91-78.5 208.5T150 698zm352 1266h207l157-336H727z"/><glyph unicode="Ú" horiz-adv-x="1495" d="M150 698v785h194V719q0-144 12.5-232.5T401 336q95-178 353-178 255 0 348 178 33 62 44 148.5t11 226.5v772h189V721q0-183-19.5-302T1247 209q-72-109-202.5-170.5T745-23 447.5 39 248 209q-59 91-78.5 208.5T150 698zm479 930 157 336h207l-225-336H629z"/><glyph unicode="Û" horiz-adv-x="1495" d="M150 698v785h194V719q0-144 12.5-232.5T401 336q95-178 353-178 255 0 348 178 33 62 44 148.5t11 226.5v772h189V721q0-183-19.5-302T1247 209q-72-109-202.5-170.5T745-23 447.5 39 248 209q-59 91-78.5 208.5T150 698zm268 930 231 336h197l231-336H924l-176 215-177-215H418z"/><glyph unicode="Ü" horiz-adv-x="1495" d="M150 698v785h194V719q0-144 12.5-232.5T401 336q95-178 353-178 255 0 348 178 33 62 44 148.5t11 226.5v772h189V721q0-183-19.5-302T1247 209q-72-109-202.5-170.5T745-23 447.5 39 248 209q-59 91-78.5 208.5T150 698zm284 1098q0 46 33.5 79.5T547 1909t79-33.5 33-79.5-33-79.5-79-33.5-79.5 33.5T434 1796zm402 0q0 46 33 79.5t79 33.5 79.5-33.5 33.5-79.5-33.5-79.5T948 1683t-79 33.5-33 79.5z"/><glyph unicode="Ý" horiz-adv-x="1341" d="M4 1483h225l252-363q191-278 193-282h4q73 113 192 284l250 361h217L770 672V0H575v670zm553 145 158 336h207l-226-336H557z"/><glyph unicode="Þ" horiz-adv-x="1273" d="M166 0v1483h194v-289h193q146 0 248.5-14.5T991 1116q215-120 215-366 0-122-54-217.5T1006 381q-87-53-202-68.5T514 297H360V0H166zm194 467h179q144 0 220 10.5T893 522q119 72 119 219 0 159-138 230-61 31-135.5 39t-201.5 8H360V467z"/><glyph unicode="ß" horiz-adv-x="1277" d="M162 0v1180q0 205 115.5 306T608 1587q214 0 332.5-94t118.5-285q0-117-39-217-123-10-215-45-68-25-98.5-59T676 801q0-16 3-29.5t7-24.5 14-22 16-18.5 22.5-16.5 24.5-14 30-14 32-13 37-14 39-14q52-19 88-36t78.5-45 68-60 43-79 17.5-104q0-152-107-236T819-23q-85 0-171.5 22T508 53v197q64-48 153.5-77.5T825 143q80 0 132.5 37.5T1010 291q0 30-11.5 54T971 385t-53.5 34.5-67 29.5-90.5 32q-131 47-199.5 117T492 784q0 167 147 258 95 60 227 82 8 46 8 84 0 211-264 211-133 0-198.5-56.5T346 1180V0H162z"/><glyph unicode="à" horiz-adv-x="1089" d="M94 272q0 80 33.5 142t92 98.5 132 55T510 586q104 0 215-27v84q0 116-60 168.5T481 864q-171 0-309-100v180q143 86 336 86 190 0 295.5-86T909 674V246q0-49 19.5-78t58.5-29q30 0 60 15V0q-45-18-99-18-62 0-114 27t-80 79h-4q-48-45-132-78T440-23q-143 0-239 72Q94 128 94 272zm187 17q0-71 53.5-109.5T473 141q69 0 136.5 24.5T725 229v189q-89 26-197 26-107 0-177-36.5T281 289zm14 1200h207l157-336H520z"/><glyph unicode="á" horiz-adv-x="1089" d="M94 272q0 80 33.5 142t92 98.5 132 55T510 586q104 0 215-27v84q0 116-60 168.5T481 864q-171 0-309-100v180q143 86 336 86 190 0 295.5-86T909 674V246q0-49 19.5-78t58.5-29q30 0 60 15V0q-45-18-99-18-62 0-114 27t-80 79h-4q-48-45-132-78T440-23q-143 0-239 72Q94 128 94 272zm187 17q0-71 53.5-109.5T473 141q69 0 136.5 24.5T725 229v189q-89 26-197 26-107 0-177-36.5T281 289zm141 864 158 336h206l-225-336H422z"/><glyph unicode="â" horiz-adv-x="1089" d="M94 272q0 80 33.5 142t92 98.5 132 55T510 586q104 0 215-27v84q0 116-60 168.5T481 864q-171 0-309-100v180q143 86 336 86 190 0 295.5-86T909 674V246q0-49 19.5-78t58.5-29q30 0 60 15V0q-45-18-99-18-62 0-114 27t-80 79h-4q-48-45-132-78T440-23q-143 0-239 72Q94 128 94 272zm117 881 231 336h197l231-336H717l-176 215-176-215H211zm70-864q0-71 53.5-109.5T473 141q69 0 136.5 24.5T725 229v189q-89 26-197 26-107 0-177-36.5T281 289z"/><glyph unicode="ã" horiz-adv-x="1089" d="M94 272q0 80 33.5 142t92 98.5 132 55T510 586q104 0 215-27v84q0 116-60 168.5T481 864q-171 0-309-100v180q143 86 336 86 190 0 295.5-86T909 674V246q0-49 19.5-78t58.5-29q30 0 60 15V0q-45-18-99-18-62 0-114 27t-80 79h-4q-48-45-132-78T440-23q-143 0-239 72Q94 128 94 272zm125 928v160q64 88 170 88 70 0 166-49 36-18 50.5-25t39.5-14.5 47-7.5q50 0 88.5 26.5T858 1450l4-2v-160q-64-88-170-88-70 0-166 49-36 18-50.5 25t-39.5 14.5-47 7.5q-50 0-88.5-26.5T223 1198zm62-911q0-71 53.5-109.5T473 141q69 0 136.5 24.5T725 229v189q-89 26-197 26-107 0-177-36.5T281 289z"/><glyph unicode="ä" horiz-adv-x="1089" d="M94 272q0 80 33.5 142t92 98.5 132 55T510 586q104 0 215-27v84q0 116-60 168.5T481 864q-171 0-309-100v180q143 86 336 86 190 0 295.5-86T909 674V246q0-49 19.5-78t58.5-29q30 0 60 15V0q-45-18-99-18-62 0-114 27t-80 79h-4q-48-45-132-78T440-23q-143 0-239 72Q94 128 94 272zm133 1049q0 46 33.5 79.5T340 1434t79.5-33.5T453 1321t-33.5-79.5T340 1208t-79.5 33.5T227 1321zm54-1032q0-71 53.5-109.5T473 141q69 0 136.5 24.5T725 229v189q-89 26-197 26-107 0-177-36.5T281 289zm348 1032q0 46 33 79.5t79 33.5 79.5-33.5T854 1321t-33.5-79.5T741 1208t-79 33.5-33 79.5z"/><glyph unicode="å" horiz-adv-x="1089" d="M94 272q0 80 33.5 142t92 98.5 132 55T510 586q104 0 215-27v84q0 116-60 168.5T481 864q-171 0-309-100v180q143 86 336 86 190 0 295.5-86T909 674V246q0-49 19.5-78t58.5-29q30 0 60 15V0q-45-18-99-18-62 0-114 27t-80 79h-4q-48-45-132-78T440-23q-143 0-239 72Q94 128 94 272zm187 17q0-71 53.5-109.5T473 141q69 0 136.5 24.5T725 229v189q-89 26-197 26-107 0-177-36.5T281 289zm20 1073q0 99 69 166t171 67q101 0 170-66.5t69-166.5-69-167-170-67-170.5 67-69.5 167zm111 0q0-56 35.5-93.5T541 1231t93.5 37.5T670 1362t-35.5 93.5T541 1493t-93.5-37.5T412 1362z"/><glyph unicode="æ" horiz-adv-x="1757" d="M94 274q0 79 33.5 140.5t92 98 132 55T510 586q94 0 203-25v80q0 114-59 167.5T473 862q-166 0-301-100v182q139 86 324 86 72 0 135.5-13t125-51.5T850 866h4q68 79 160.5 121.5T1212 1030q191 0 320-131t129-354q0-57-6-94H897q22-145 119.5-226.5T1262 143q183 0 344 125V72q-68-43-165-69t-192-26q-117 0-225 42.5T840 147Q667-23 442-23q-145 0-246.5 79.5T94 274zm187 13q0-71 53-108.5T471 141q172 0 295 123-34 77-45 154-89 26-193 26-68 0-120.5-13.5T318 380t-37-93zm618 309h584q-5 106-80 187t-197 81q-52 0-101-16t-92-47.5-73.5-84.5T899 596z"/><glyph unicode="ç" horiz-adv-x="1044" d="M92 498q0 152 74 274.5t202 190 283 67.5q150 0 273-63V776q-136 86-281 86-161 0-262.5-104.5T279 498t103.5-254T649 145t291 99V47Q812-23 635-23l-21-65q183-41 183-184 0-82-58.5-131.5T582-453q-88 0-164 37l31 105q76-39 131-39 42 0 70 18.5t28 52.5q0 28-18.5 48.5t-49 31-60 16T489-176l50 162Q341 15 216.5 157T92 498z"/><glyph unicode="è" horiz-adv-x="1153" d="M92 504q0 154 69.5 275.5t183.5 186 249 64.5q125 0 228-55t167-167.5 64-264.5q0-55-6-92H276q20-147 120.5-227.5T649 143q184 0 348 125V72Q929 29 831.5 3T637-23q-236 0-390.5 146T92 504zm189 92h593q-6 72-33.5 126T771 806t-87.5 44-93.5 14q-109 0-197.5-68.5T281 596zm55 893h207l157-336H561z"/><glyph unicode="é" horiz-adv-x="1153" d="M92 504q0 154 69.5 275.5t183.5 186 249 64.5q125 0 228-55t167-167.5 64-264.5q0-55-6-92H276q20-147 120.5-227.5T649 143q184 0 348 125V72Q929 29 831.5 3T637-23q-236 0-390.5 146T92 504zm189 92h593q-6 72-33.5 126T771 806t-87.5 44-93.5 14q-109 0-197.5-68.5T281 596zm182 557 158 336h206l-225-336H463z"/><glyph unicode="ê" horiz-adv-x="1153" d="M92 504q0 154 69.5 275.5t183.5 186 249 64.5q125 0 228-55t167-167.5 64-264.5q0-55-6-92H276q20-147 120.5-227.5T649 143q184 0 348 125V72Q929 29 831.5 3T637-23q-236 0-390.5 146T92 504zm160 649 231 336h197l231-336H758l-176 215-176-215H252zm29-557h593q-6 72-33.5 126T771 806t-87.5 44-93.5 14q-109 0-197.5-68.5T281 596z"/><glyph unicode="ë" horiz-adv-x="1153" d="M92 504q0 154 69.5 275.5t183.5 186 249 64.5q125 0 228-55t167-167.5 64-264.5q0-55-6-92H276q20-147 120.5-227.5T649 143q184 0 348 125V72Q929 29 831.5 3T637-23q-236 0-390.5 146T92 504zm176 817q0 46 33.5 79.5T381 1434t79.5-33.5T494 1321t-33.5-79.5T381 1208t-79.5 33.5T268 1321zm13-725h593q-6 72-33.5 126T771 806t-87.5 44-93.5 14q-109 0-197.5-68.5T281 596zm389 725q0 46 33 79.5t79 33.5 79.5-33.5T895 1321t-33.5-79.5T782 1208t-79 33.5-33 79.5z"/><glyph unicode="ì" horiz-adv-x="507" d="M8 1489h207l158-336H233zM162 0v1008h184V0H162z"/><glyph unicode="í" horiz-adv-x="507" d="m135 1153 158 336h207l-226-336H135zM162 0v1008h184V0H162z"/><glyph unicode="î" horiz-adv-x="507" d="m-76 1153 232 336h196l232-336H430l-176 215-176-215H-76zM162 0v1008h184V0H162z"/><glyph unicode="ï" horiz-adv-x="507" d="M-59 1321q0 46 33 79.5t79 33.5 79.5-33.5T166 1321t-33.5-79.5T53 1208t-79 33.5-33 79.5zM162 0v1008h184V0H162zm180 1321q0 46 33.5 79.5T455 1434t79-33.5 33-79.5-33-79.5-79-33.5-79.5 33.5T342 1321z"/><glyph unicode="ð" horiz-adv-x="1187" d="M76 481q0 217 137 362.5T559 989q174 0 279-98l4 4q-72 163-219 301l-320-121-27 127 232 88q-92 65-213 123l111 123q164-84 278-178l217 82 27-127-140-53q157-161 238.5-354t81.5-382q0-134-41-239.5t-112.5-172-165-101T588-23q-230 0-371 142.5T76 481zm184 11q0-149 92-248t240-99q151 0 241.5 101.5T924 496q0 153-97 243t-239 90q-146 0-237-94.5T260 492z"/><glyph unicode="ñ" d="M162 0v1008h184V881l4-2q69 69 159.5 110t192.5 41q173 0 269-110 43-50 63.5-117.5T1055 623V0H870v588q0 149-47 205-54 65-161 65-85 0-173-47.5T346 690V0H162zm123 1200v160q64 88 170 88 70 0 166-49 36-18 50.5-25t39.5-14.5 47-7.5q50 0 88.5 26.5T924 1450l4-2v-160q-64-88-170-88-70 0-166 49-36 18-50.5 25t-39.5 14.5-47 7.5q-50 0-88.5-26.5T289 1198z"/><glyph unicode="ò" horiz-adv-x="1249" d="M92 504q0 223 152.5 374.5T625 1030q150 0 272-69t191-189.5 69-267.5-69-267.5-191-190T625-23 352.5 46.5 161 236.5 92 504zm184 0q0-153 99.5-256T625 145t249 103 99 256-99 255.5T625 862 375.5 759.5 276 504zm103 985h207l157-336H604z"/><glyph unicode="ó" horiz-adv-x="1249" d="M92 504q0 223 152.5 374.5T625 1030q150 0 272-69t191-189.5 69-267.5-69-267.5-191-190T625-23 352.5 46.5 161 236.5 92 504zm184 0q0-153 99.5-256T625 145t249 103 99 256-99 255.5T625 862 375.5 759.5 276 504zm230 649 158 336h206l-225-336H506z"/><glyph unicode="ô" horiz-adv-x="1249" d="M92 504q0 223 152.5 374.5T625 1030q150 0 272-69t191-189.5 69-267.5-69-267.5-191-190T625-23 352.5 46.5 161 236.5 92 504zm184 0q0-153 99.5-256T625 145t249 103 99 256-99 255.5T625 862 375.5 759.5 276 504zm19 649 231 336h197l231-336H801l-176 215-176-215H295z"/><glyph unicode="õ" horiz-adv-x="1249" d="M92 504q0 223 152.5 374.5T625 1030q150 0 272-69t191-189.5 69-267.5-69-267.5-191-190T625-23 352.5 46.5 161 236.5 92 504zm184 0q0-153 99.5-256T625 145t249 103 99 256-99 255.5T625 862 375.5 759.5 276 504zm27 696v160q64 88 170 88 70 0 166-49 36-18 50.5-25t39.5-14.5 47-7.5q50 0 88.5 26.5T942 1450l4-2v-160q-64-88-170-88-70 0-166 49-36 18-50.5 25t-39.5 14.5-47 7.5q-50 0-88.5-26.5T307 1198z"/><glyph unicode="ö" horiz-adv-x="1249" d="M92 504q0 223 152.5 374.5T625 1030q150 0 272-69t191-189.5 69-267.5-69-267.5-191-190T625-23 352.5 46.5 161 236.5 92 504zm184 0q0-153 99.5-256T625 145t249 103 99 256-99 255.5T625 862 375.5 759.5 276 504zm35 817q0 46 33.5 79.5T424 1434t79.5-33.5T537 1321t-33.5-79.5T424 1208t-79.5 33.5T311 1321zm402 0q0 46 33 79.5t79 33.5 79.5-33.5T938 1321t-33.5-79.5T825 1208t-79 33.5-33 79.5z"/><glyph unicode="÷" horiz-adv-x="1204" d="M109 668v147h987V668H109zm378-365q0 47 34 81t81 34 81-34 34-81-34-81-81-34-81 34-34 81zm0 877q0 47 34 80.5t81 33.5 81-33.5 34-80.5-34-81-81-34-81 34-34 81z"/><glyph unicode="ø" horiz-adv-x="1249" d="M92 504q0 223 152.5 374.5T625 1030q166 0 297-86l102 117 100-86-100-115q133-146 133-356 0-147-69-267.5t-191-190T625-23q-166 0-297 86L225-53 125 33l100 114q-63 69-98 162T92 504zm184 0q0-126 68-219l463 528q-84 49-182 49-150 0-249.5-102.5T276 504zm166-309q85-50 183-50 150 0 249 103t99 256q0 126-68 219z"/><glyph unicode="ù" d="M158 391v617h184V426q0-83 11.5-130.5T391 217q56-70 160-70 88 0 172 49t143 123v689h185V0H866v127l-4 2Q710-23 514-23q-80 0-152.5 28.5T240 90q-82 98-82 301zm202 1098h207l158-336H586z"/><glyph unicode="ú" d="M158 391v617h184V426q0-83 11.5-130.5T391 217q56-70 160-70 88 0 172 49t143 123v689h185V0H866v127l-4 2Q710-23 514-23q-80 0-152.5 28.5T240 90q-82 98-82 301zm329 762 158 336h207l-225-336H487z"/><glyph unicode="û" d="M158 391v617h184V426q0-83 11.5-130.5T391 217q56-70 160-70 88 0 172 49t143 123v689h185V0H866v127l-4 2Q710-23 514-23q-80 0-152.5 28.5T240 90q-82 98-82 301zm118 762 232 336h197l231-336H782l-176 215-176-215H276z"/><glyph unicode="ü" d="M158 391v617h184V426q0-83 11.5-130.5T391 217q56-70 160-70 88 0 172 49t143 123v689h185V0H866v127l-4 2Q710-23 514-23q-80 0-152.5 28.5T240 90q-82 98-82 301zm135 930q0 46 33.5 79.5T406 1434t79-33.5 33-79.5-33-79.5-79-33.5-79.5 33.5T293 1321zm401 0q0 46 33.5 79.5T807 1434t79.5-33.5T920 1321t-33.5-79.5T807 1208t-79.5 33.5T694 1321z"/><glyph unicode="ý" horiz-adv-x="1126" d="M45 1008h205l176-381q60-130 137-303h4q67 150 138 303l176 381h194L393-451H193l272 560zm401 145 158 336h207l-225-336H446z"/><glyph unicode="þ" horiz-adv-x="1220" d="M162-451v2016h184V946l4-2q130 86 287 86 101 0 190.5-38T983 887t104.5-164.5T1126 512q0-235-151.5-385T596-23q-120 0-246 52l-4-2v-478H162zm184 658q121-68 254-68 151 0 245.5 101.5T940 500q0 157-91.5 260.5T608 864q-141 0-262-88V207z"/><glyph unicode="ÿ" horiz-adv-x="1126" d="M45 1008h205l176-381q60-130 137-303h4q67 150 138 303l176 381h194L393-451H193l272 560zm207 313q0 46 33.5 79.5T365 1434t79-33.5 33-79.5-33-79.5-79-33.5-79.5 33.5T252 1321zm401 0q0 46 33.5 79.5T766 1434t79.5-33.5T879 1321t-33.5-79.5T766 1208t-79.5 33.5T653 1321z"/><glyph unicode="Œ" horiz-adv-x="1902" d="M82 739q0 188 75.5 340.5T375 1333q115 82 256 116t317 34h848v-176h-637V856h555V686h-555V176h656V0H940Q776 0 650 28t-236 95q-160 99-246 257.5T82 739zm194 2q0-152 63.5-269.5T516 279q89-58 188.5-79.5T965 176v1131q-158-2-260.5-23.5T516 1206q-115-74-177.5-194T276 741z"/><glyph unicode="œ" horiz-adv-x="2007" d="M92 502q0 111 40.5 208.5t110 168 168 111T621 1030q137 0 249-60.5T1051 803h4q64 107 171.5 167t233.5 60q125 0 226.5-56.5t163-166.5 61.5-254q0-52-8-102h-754q22-145 119.5-226.5T1513 143q178 0 342 125V72q-68-43-164-69t-190-26q-147 0-262 60t-182 168h-4Q983 99 869.5 38T618-23q-226 0-376 150.5T92 502zm184 4q0-154 99-257.5T623 145q147 0 244.5 102T965 502q0 154-99 257T618 862 372.5 760.5 276 506zm875 90h584q-5 107-80 187.5T1456 864q-110 0-197.5-68.5T1151 596z"/><glyph unicode="Ÿ" horiz-adv-x="1341" d="M4 1483h225l252-363q191-278 193-282h4q73 113 192 284l250 361h217L770 672V0H575v670zm358 313q0 46 33.5 79.5T475 1909t79.5-33.5T588 1796t-33.5-79.5T475 1683t-79.5 33.5T362 1796zm402 0q0 46 33.5 79.5T877 1909t79-33.5 33-79.5-33-79.5-79-33.5-79.5 33.5T764 1796z"/><glyph unicode="ˆ" horiz-adv-x="1028" d="m184 1153 232 336h196l232-336H690l-176 215-176-215H184z"/><glyph unicode="˜" horiz-adv-x="1028" d="M193 1200v160q64 88 169 88 70 0 166-49 35-18 51-25.5t40.5-14.5 46.5-7q50 0 87.5 26t77.5 72l5-2v-160q-64-88-170-88-70 0-166 49-35 18-51 25.5t-40.5 14.5-46.5 7q-50 0-87.5-26t-77.5-72z"/><glyph horiz-adv-x="1035"/><glyph horiz-adv-x="2071"/><glyph horiz-adv-x="1035"/><glyph horiz-adv-x="2071"/><glyph horiz-adv-x="690"/><glyph horiz-adv-x="517"/><glyph horiz-adv-x="345"/><glyph horiz-adv-x="345"/><glyph horiz-adv-x="258"/><glyph horiz-adv-x="414"/><glyph horiz-adv-x="115"/><glyph unicode="‐" horiz-adv-x="720" d="M117 485v164h487V485H117z"/><glyph unicode="‑" horiz-adv-x="720" d="M117 485v164h487V485H117z"/><glyph unicode="‒" horiz-adv-x="720" d="M117 485v164h487V485H117z"/><glyph unicode="–" horiz-adv-x="1015" d="M106 494v147h803V494H106z"/><glyph unicode="—" horiz-adv-x="1609" d="M74 504v127h1462V504H74z"/><glyph unicode="‘" horiz-adv-x="548" d="m127 969 168 551h125L307 969H127z"/><glyph unicode="’" horiz-adv-x="548" d="m129 969 113 551h180L254 969H129z"/><glyph unicode="‚" horiz-adv-x="548" d="m129-215 113 551h180L254-215H129z"/><glyph unicode="“" horiz-adv-x="880" d="m127 969 168 551h125L307 969H127zm332 0 168 551h125L639 969H459z"/><glyph unicode="”" horiz-adv-x="880" d="m129 969 113 551h180L254 969H129zm332 0 112 551h181L586 969H461z"/><glyph unicode="„" horiz-adv-x="880" d="m129-215 113 551h180L254-215H129zm332 0 112 551h181L586-215H461z"/><glyph unicode="•" horiz-adv-x="786" d="M170 608q0 92 65.5 157.5T393 831t157.5-65.5T616 608t-65.5-157.5T393 385t-157.5 65.5T170 608z"/><glyph unicode="…" horiz-adv-x="1671" d="M168 113q0 55 40 95t95 40 95-40 40-95q0-56-40-96t-95-40-95 40-40 96zm534 0q0 55 40 95t96 40 95.5-40 39.5-95q0-56-40-96t-95-40q-56 0-96 40.5T702 113zm535 0q0 55 39.5 95t95.5 40 95.5-40 39.5-95q0-56-40-96t-95-40-95 40-40 96z"/><glyph horiz-adv-x="414"/><glyph unicode="‹" horiz-adv-x="704" d="m94 504 340 448h160L254 504 594 55H434z"/><glyph unicode="›" horiz-adv-x="704" d="m111 55 340 449-340 448h159l340-448L270 55H111z"/><glyph horiz-adv-x="517"/><glyph unicode="€" horiz-adv-x="1226" d="M35 504v149h153q-4 54-4 92 0 51 4 97H35v149h180q64 237 248.5 375.5T922 1505q106 0 221-28v-193q-115 41-232 41-178 0-305.5-88.5T420 991h416V842H385q-6-47-6-97 0-34 4-92h453V504H418q56-162 184-254t307-92q146 0 258 47V14q-129-37-266-37-265 0-445 143.5T213 504H35z"/><glyph unicode="™" horiz-adv-x="1290" d="M49 1384v99h467v-99H336V889H229v495H49zm559-495v594h101l192-266 193 266h102V889h-106v266q0 66 4 152l-4 2q-46-68-95-138l-94-131-94 131q-24 34-94 138l-4-2q4-86 4-152V889H608z"/><glyph unicode="◼" horiz-adv-x="1003" d="M0 0v1004h1004V0H0z"/></font>
</defs>
</svg>
