<svg width="24" height="20" xmlns="http://www.w3.org/2000/svg"><g id="Spreads-" stroke="none" stroke-width="1" fill="none" fill-rule="evenodd"><g id="-4---Hotspot-Expanded-" transform="translate(-219 -238)" fill="#111"><g id="Product-Carousel" transform="translate(0 208)"><g id="Product-2" transform="translate(145 18)"><g id="Image"><g id="Icons/Favourites" transform="translate(64)"><path d="M28.038 12c1.51 0 3.12.588 4.226 1.765a5.752 5.752 0 0 1 0 8.235L22 32 11.736 21.902a5.752 5.752 0 0 1 0-8.235C12.843 12.588 14.453 12 15.962 12c1.51 0 3.02.49 4.227 1.667L22 15.43l1.811-1.764C24.918 12.588 26.528 12 28.038 12Zm0 .98c-1.308 0-2.617.49-3.522 1.471l-1.812 1.765-.704.686-.704-.686-1.812-1.765c-.905-.98-2.214-1.47-3.522-1.47-1.308 0-2.616.588-3.522 1.47-1.006.882-1.51 2.157-1.51 3.431 0 1.275.605 2.55 1.51 3.432L22 30.627l9.56-9.313c1.006-.883 1.51-2.157 1.51-3.432 0-1.274-.504-2.549-1.51-3.431-.906-.98-2.214-1.47-3.522-1.47Z" id="Favourites"/></g></g></g></g></g></g></svg>