<svg width="170" height="163" xmlns="http://www.w3.org/2000/svg"><g fill="#FFF" id="Page-1" stroke="none" stroke-width="1" fill-rule="evenodd"><path d="M45 63H18C8.059 63 0 54.941 0 45V18C0 8.059 8.059 0 18 0h27c9.941 0 18 8.059 18 18v27c0 9.941-8.059 18-18 18" id="Fill-1"/><path d="M152 63h-27c-9.941 0-18-8.059-18-18V18c0-9.941 8.059-18 18-18h27c9.941 0 18 8.059 18 18v27c0 9.941-8.059 18-18 18" id="Fill-3"/><path d="M45 163H18c-9.941 0-18-8.059-18-18v-27c0-9.941 8.059-18 18-18h27c9.941 0 18 8.059 18 18v27c0 9.941-8.059 18-18 18" id="Fill-5"/><path d="M152 163h-27c-9.941 0-18-8.059-18-18v-27c0-9.941 8.059-18 18-18h27c9.941 0 18 8.059 18 18v27c0 9.941-8.059 18-18 18" id="Fill-7"/></g></svg>