<svg width="80" height="23" xmlns="http://www.w3.org/2000/svg" xmlns:xlink="http://www.w3.org/1999/xlink"><defs><path id="path-1" d="M0 .224h79.92V22.53H0"/><path id="path-3" d="M0 .224h79.92V22.53H0"/></defs><g id="Page-4" stroke="none" stroke-width="1" fill="none" fill-rule="evenodd"><g id="02-02-BFPO-mobile-edit-delivery-address" transform="translate(-11 -9)"><g id="Delivery-Header---Payment" transform="translate(-1)"><g id="mSite-Checkout-Header"><g id="Next-Logo" transform="translate(12 9)"><g id="Group-3"><mask id="mask-2" fill="#fff"><use xlink:href="#path-1"/></mask><path d="M74.206 22.531c-2.638 0-4.659-.665-6.005-1.979-1.393-1.357-2.015-3.272-2.015-6.207V.224h1.45v1.954h10.642v1.25H67.637v10.917c0 2.635.513 4.188 1.77 5.363 1.086 1.028 2.746 1.573 4.799 1.573 1.318 0 3.205-.236 4.91-1.322l.805.97c-1.593 1.05-3.558 1.602-5.715 1.602" id="Fill-1" fill="#FEFEFE" mask="url('#mask-2')"/></g><g id="Group-6"><mask id="mask-4" fill="#fff"><use xlink:href="#path-3"/></mask><path d="M31.75 2.981c-4.698 0-7.934 3.057-8.443 7.978l-.047.453h16.993l-.035-.443c-.38-4.778-3.783-7.988-8.468-7.988m0 19.55c-2.885 0-5.37-.984-7.186-2.845-1.835-1.882-2.805-4.478-2.805-7.508 0-6.249 4.015-10.447 9.991-10.447 5.897 0 10.015 4.286 10.015 10.423v.508H23.25l.033.441c.372 4.968 3.695 8.178 8.467 8.178 3.774 0 6.357-1.504 7.888-4.595h1.507c-1.575 3.673-5.043 5.845-9.395 5.845" id="Fill-4" fill="#FEFEFE" mask="url('#mask-4')"/></g><path id="Fill-7" fill="#FEFEFE" d="M62.303 2.179h-1.738l-7.463 8.792-7.434-8.752h-1.732l8.284 9.791-8.49 10.002v.072h1.759l7.613-9.011 7.62 9.01h1.818l-8.555-10.055z"/><path d="M17.789 11.277V9.956c0-.534-.022-1.034-.065-1.503l-.01-.097a12.93 12.93 0 0 0-.04-.374c-.004-.02-.006-.04-.009-.061-.241-1.832-.849-3.162-1.89-4.178a5.94 5.94 0 0 0-1.212-.905c-1.142-.674-2.687-1.106-4.781-1.106-6.434 0-8.394 4.194-8.394 4.194.017-1.14.04-3.208.04-3.208H0v19.366H1.43V10.853l.007-.661s-.203-3.815 3.32-5.962c.033-.02.065-.042.1-.062 0 0 .132-.073.197-.112 1.179-.644 2.74-1.067 4.808-1.075l.025.002c1.985.036 3.593.578 4.657 1.571 1.275 1.175 1.795 2.728 1.795 5.363V22.084h1.451V11.277Z" id="Fill-9" fill="#FEFEFE"/></g></g></g></g></g></svg>