<svg version="1.1" id="Layer_1" xmlns="http://www.w3.org/2000/svg" x="0" y="0" viewBox="0 0 24 24" style="enable-background:new 0 0 24 24" xml:space="preserve"><g id="Page-1"><g id="ni-search-line"><g id="ni-search-line-copy-5"><path id="Shape" d="M0 9.8c0 5.4 4.4 9.8 9.8 9.8 2.6 0 4.9-1 6.6-2.6l7.1 7.1.5-.5-7.1-7.1c1.6-1.7 2.6-4.1 2.6-6.6 0-5.4-4.4-9.8-9.8-9.8S0 4.4 0 9.8zm.8 0c0-5 4-9 9-9s9 4 9 9-4 9-9 9-9-4.1-9-9z"/></g><g id="ni-search-line-copy-5_1_"><path id="Shape_1_" d="M0 9.8c0 5.4 4.4 9.8 9.8 9.8 2.6 0 4.9-1 6.6-2.6l7.1 7.1.5-.5-7.1-7.1c1.6-1.7 2.6-4.1 2.6-6.6 0-5.4-4.4-9.8-9.8-9.8S0 4.4 0 9.8zm.8 0c0-5 4-9 9-9s9 4 9 9-4 9-9 9-9-4.1-9-9z"/></g></g></g><path style="fill:none;stroke:#000;stroke-miterlimit:10" d="M13.7 9.4H5.5"/></svg>