<?xml version="1.0" encoding="UTF-8"?>
<svg width="24px" height="20px" viewBox="0 0 24 20" version="1.1" xmlns="http://www.w3.org/2000/svg" xmlns:xlink="http://www.w3.org/1999/xlink">
    <!-- Generator: Sketch 42 (36781) - http://www.bohemiancoding.com/sketch -->
    <title>Icons/Favourites</title>
    <desc>Created with Sketch.</desc>
    <defs></defs>
    <g id="Spreads-" stroke="none" stroke-width="1" fill="none" fill-rule="evenodd">
        <g id="-4---Hotspot-Expanded-" transform="translate(-219.000000, -238.000000)" fill="#111111">
            <g id="Product-Carousel" transform="translate(0.000000, 208.000000)">
                <g id="Product-2" transform="translate(145.000000, 18.000000)">
                    <g id="Image">
                        <g id="Icons/Favourites" transform="translate(64.000000, 0.000000)">
                            <path d="M28.0377358,12 C29.5471698,12 31.1572327,12.5882353 32.2641509,13.7647059 C34.5786164,16.0196078 34.5786164,19.745098 32.2641509,22 L22,32 L11.7358491,21.9019608 C9.42138365,19.6470588 9.42138365,15.9215686 11.7358491,13.6666667 C12.8427673,12.5882353 14.4528302,12 15.9622642,12 C17.4716981,12 18.9811321,12.4901961 20.1886792,13.6666667 L22,15.4313725 L23.8113208,13.6666667 C24.918239,12.5882353 26.5283019,12 28.0377358,12 Z M28.0377358,12.9803922 C26.7295597,12.9803922 25.4213836,13.4705882 24.5157233,14.4509804 L22.7044025,16.2156863 L22,16.9019608 L21.2955975,16.2156863 L19.4842767,14.4509804 C18.5786164,13.4705882 17.2704403,12.9803922 15.9622642,12.9803922 C14.6540881,12.9803922 13.3459119,13.5686275 12.4402516,14.4509804 C11.4339623,15.3333333 10.9308176,16.6078431 10.9308176,17.8823529 C10.9308176,19.1568627 11.5345912,20.4313725 12.4402516,21.3137255 L22,30.627451 L31.5597484,21.3137255 C32.5660377,20.4313725 33.0691824,19.1568627 33.0691824,17.8823529 C33.0691824,16.6078431 32.5660377,15.3333333 31.5597484,14.4509804 C30.6540881,13.4705882 29.3459119,12.9803922 28.0377358,12.9803922 Z" id="Favourites"></path>
                        </g>
                    </g>
                </g>
            </g>
        </g>
    </g>
</svg>