<?xml version="1.0" encoding="UTF-8"?>
<svg width="80px" height="23px" viewBox="0 0 80 23" version="1.1" xmlns="http://www.w3.org/2000/svg" xmlns:xlink="http://www.w3.org/1999/xlink">
    <!-- Generator: Sketch 42 (36781) - http://www.bohemiancoding.com/sketch -->
    <title>Next Logo</title>
    <desc>Created with Sketch.</desc>
    <defs>
        <polyline id="path-1" points="0 0.223736285 79.9206818 0.223736285 79.9206818 22.531348 0 22.531348"></polyline>
        <polyline id="path-3" points="0 0.223736285 79.9206818 0.223736285 79.9206818 22.531348 0 22.531348"></polyline>
    </defs>
    <g id="Page-4" stroke="none" stroke-width="1" fill="none" fill-rule="evenodd">
        <g id="02-02-BFPO-mobile-edit-delivery-address" transform="translate(-11.000000, -9.000000)">
            <g id="Delivery-Header---Payment" transform="translate(-1.000000, 0.000000)">
                <g id="mSite-Checkout-Header">
                    <g id="Next-Logo" transform="translate(12.000000, 9.000000)">
                        <g id="Group-3">
                            <mask id="mask-2" fill="white">
                                <use xlink:href="#path-1"></use>
                            </mask>
                            <g id="Clip-2"></g>
                            <path d="M74.2059318,22.531348 C71.56775,22.531348 69.5470682,21.8655466 68.2007045,20.5524197 C66.8075227,19.1946806 66.1863864,17.280192 66.1863864,14.3450333 L66.1863864,0.223736285 L67.6368409,0.223736285 L67.6368409,2.17810541 L78.2782045,2.17810541 L78.2782045,3.42859522 L67.6368409,3.42859522 L67.6368409,14.3450333 C67.6368409,16.9796238 68.1497955,18.5331603 69.40775,19.7079447 C70.4929773,20.7360502 72.1529773,21.2806328 74.2059318,21.2806328 C75.5238864,21.2806328 77.4113864,21.0447296 79.1154773,19.9593946 L79.9207045,20.9295944 C78.3284318,21.9788793 76.36275,22.531348 74.2059318,22.531348" id="Fill-1" fill="#FEFEFE" mask="url(#mask-2)"></path>
                        </g>
                        <g id="Group-6">
                            <mask id="mask-4" fill="white">
                                <use xlink:href="#path-3"></use>
                            </mask>
                            <g id="Clip-5"></g>
                            <path d="M31.75025,2.98143809 C27.0516136,2.98143809 23.8163864,6.03826607 23.3070682,10.9591125 L23.26025,11.4119926 L40.25275,11.4119926 L40.2175227,10.9688009 C39.83775,6.19125392 36.4350227,2.98143809 31.75025,2.98143809 M31.75025,22.5314381 C28.86525,22.5314381 26.3804773,21.5472688 24.5643409,19.6855035 C22.7291136,17.804136 21.7588864,15.2080741 21.7588864,12.1782837 C21.7588864,5.92921434 25.7741136,1.73072296 31.75025,1.73072296 C37.6470682,1.73072296 41.7654773,6.0170866 41.7654773,12.1539498 L41.7654773,12.6615811 L23.2504773,12.6615811 L23.2834318,13.1029702 C23.6545682,18.0706818 26.9779773,21.280723 31.75025,21.280723 C35.5238864,21.280723 38.1068409,19.7772061 39.6379773,16.6861305 L41.1445682,16.6861305 C39.57025,20.3585149 36.1016136,22.5314381 31.75025,22.5314381" id="Fill-4" fill="#FEFEFE" mask="url(#mask-4)"></path>
                        </g>
                        <polygon id="Fill-7" fill="#FEFEFE" points="62.3029545 2.17864616 60.5647727 2.17864616 53.1022727 10.9706034 45.6679545 2.2194279 43.9356818 2.2194279 52.2197727 12.0101998 43.73 22.0120905 43.73 22.0835149 45.4886364 22.0835149 53.1022727 13.0727782 60.7227273 22.0835149 62.5402273 22.0835149 53.9845455 12.0279996"></polygon>
                        <path d="M17.7885227,11.2766017 L17.7885227,11.2754751 L17.7885227,11.2583513 L17.7885227,11.258126 L17.7885227,11.2569994 L17.7885227,10.1164626 C17.7885227,10.065767 17.7885227,10.0116918 17.7882955,9.95603938 C17.7880682,9.42204643 17.7667045,8.92207582 17.7242045,8.45297316 C17.72125,8.4203027 17.7178409,8.38875882 17.7146591,8.35631368 C17.7021591,8.22946219 17.68875,8.10418789 17.6730682,7.98184267 C17.6703409,7.96133915 17.6676136,7.94128625 17.6651136,7.92100803 C17.42375,6.08875882 16.8160227,4.75873335 15.7742045,3.74347081 C15.4178409,3.39581211 15.0126136,3.09501861 14.5628409,2.83838656 C13.4210227,2.16402332 11.8757955,1.73209737 9.78193182,1.73209737 C3.34806818,1.73209737 1.38761364,5.92563186 1.38761364,5.92563186 C1.40465909,4.78667222 1.42875,2.71784385 1.42875,2.71784385 L0.000113636363,2.71784385 L0.000113636363,22.0835374 L1.42875,22.0835374 L1.42875,10.8530123 L1.43602273,10.1919426 C1.43602273,10.1919426 1.23329545,6.37693476 4.75556818,4.22992261 C4.78920455,4.20941908 4.82079545,4.1880143 4.85511364,4.1679614 C4.85511364,4.1679614 4.98829545,4.09495984 5.05306818,4.05643123 C6.23170455,3.41248531 7.79306818,2.98912128 9.86079545,2.98146062 L9.88579545,2.98326313 C11.8714773,3.01863734 13.4792045,3.56051626 14.5426136,4.55437402 C15.8180682,5.72893319 16.3382955,7.28246963 16.3382955,9.91706015 L16.3382955,20.8337236 L16.3380682,20.8675206 L16.3380682,20.885771 L16.3380682,22.0835374 L16.79125,22.0835374 L17.7885227,22.0835374 L17.7885227,11.2766017 Z" id="Fill-9" fill="#FEFEFE"></path>
                    </g>
                </g>
            </g>
        </g>
    </g>
</svg>