<svg id="Layer_1" data-name="Layer 1" xmlns="http://www.w3.org/2000/svg" viewBox="0 0 47.78 47.47"><defs><style>.cls-1{fill:#fff;}</style></defs><title>shopping-bag</title><rect class="cls-1" x="14.92" y="10.82" width="17.56" height="1.5"/><path class="cls-1" d="M37.9,47.81H10a4.73,4.73,0,0,1-4.69-4L.13,11.16H7.91v1.5h-6L6.82,43.57A3.24,3.24,0,0,0,10,46.31H37.92a3.24,3.24,0,0,0,3.21-2.73l5-30.92h-6v-1.5h7.78l-5.3,32.66A4.73,4.73,0,0,1,37.9,47.81Z" transform="translate(-0.13 -0.34)"/><path class="cls-1" d="M37.41,18.6h-1.5V13.68a11.84,11.84,0,1,0-23.68,0h0V18.6h-1.5V13.68a13.34,13.34,0,0,1,26.68,0Z" transform="translate(-0.13 -0.34)"/></svg>