<?xml version="1.0" encoding="utf-8"?>
<!-- Generator: Adobe Illustrator 21.0.0, SVG Export Plug-In . SVG Version: 6.00 Build 0)  -->
<svg version="1.1" id="Layer_1" xmlns="http://www.w3.org/2000/svg" xmlns:xlink="http://www.w3.org/1999/xlink" x="0px" y="0px"
	 viewBox="0 0 24 24" style="enable-background:new 0 0 24 24;" xml:space="preserve">
<style type="text/css">
	.st0{fill:#FFFFFF;stroke:#000000;stroke-miterlimit:10;}
</style>
<title>ni-search-line</title>
<desc>Created with Sketch.</desc>
<g id="Page-1">
	<g id="ni-search-line">
		<g id="ni-search-line-copy-5">
			<path id="Shape" d="M0,9.8c0,5.4,4.4,9.8,9.8,9.8c2.6,0,4.9-1,6.6-2.6l7.1,7.1l0.5-0.5l-7.1-7.1c1.6-1.7,2.6-4.1,2.6-6.6
				c0-5.4-4.4-9.8-9.8-9.8S0,4.4,0,9.8L0,9.8z M0.8,9.8c0-5,4-9,9-9s9,4,9,9s-4,9-9,9S0.8,14.7,0.8,9.8L0.8,9.8z"/>
		</g>
		<g id="ni-search-line-copy-5_1_">
			<path id="Shape_1_" d="M0,9.8c0,5.4,4.4,9.8,9.8,9.8c2.6,0,4.9-1,6.6-2.6l7.1,7.1l0.5-0.5l-7.1-7.1c1.6-1.7,2.6-4.1,2.6-6.6
				c0-5.4-4.4-9.8-9.8-9.8S0,4.4,0,9.8L0,9.8z M0.8,9.8c0-5,4-9,9-9s9,4,9,9s-4,9-9,9S0.8,14.7,0.8,9.8L0.8,9.8z"/>
		</g>
	</g>
</g>
<line class="st0" x1="9.6" y1="5.2" x2="9.6" y2="13.5"/>
<line class="st0" x1="13.7" y1="9.4" x2="5.5" y2="9.4"/>
</svg>
